<svg width="280" height="210" viewBox="0 0 280 210" fill="none" xmlns="http://www.w3.org/2000/svg">
<path d="M46.6375 183.33H230.16L237.93 125.527C238.14 124.005 237.965 122.465 237.458 121.012L207.97 38.2547C206.658 34.5972 203.28 32.0772 199.395 31.8672L96.11 26.5297C93.2225 26.3722 90.4225 27.5447 88.48 29.6797L44.3975 78.3822C42.6825 80.2722 41.79 82.7572 41.9125 85.3122L46.6375 183.33Z" fill="#F4F4F4"/>
<path d="M222.758 162.12C222.723 162.12 222.688 162.103 222.67 162.085L213.518 152.88C213.465 152.828 213.465 152.758 213.518 152.705C213.57 152.653 213.64 152.653 213.693 152.705L222.845 161.91C222.898 161.963 222.898 162.033 222.845 162.085C222.828 162.103 222.793 162.12 222.758 162.12Z" fill="#21252B"/>
<path d="M231.736 156.275C231.683 156.24 231.596 156.257 231.561 156.31L224.841 166.477L226.503 125.58C226.503 125.51 226.451 125.457 226.381 125.457C226.311 125.457 226.258 125.51 226.258 125.58L224.351 172.497C224.351 172.567 224.403 172.62 224.473 172.62C224.543 172.62 224.596 172.567 224.596 172.497L224.823 166.95L231.753 156.45C231.806 156.38 231.788 156.31 231.736 156.275Z" fill="#21252B"/>
<path d="M225.436 150.465C225.401 150.465 225.384 150.448 225.349 150.43C225.296 150.378 225.296 150.308 225.331 150.255L235.814 138.285C235.866 138.233 235.936 138.233 235.989 138.268C236.041 138.32 236.041 138.39 236.006 138.443L225.524 150.413C225.506 150.448 225.471 150.465 225.436 150.465Z" fill="#21252B"/>
<path d="M235.233 144.815C237.706 141.908 238.446 138.474 236.887 137.146C235.326 135.819 232.055 137.099 229.581 140.007C227.108 142.914 226.368 146.348 227.927 147.676C229.488 149.003 232.759 147.723 235.233 144.815Z" fill="#FFBD3A"/>
<path opacity="0.3" d="M236.986 137.235L227.868 147.63C227.886 147.648 227.903 147.665 227.921 147.683C229.478 149.013 232.751 147.718 235.218 144.813C237.651 141.96 238.421 138.618 236.986 137.235Z" fill="black"/>
<path d="M218.992 158.17C220.25 156.954 219.431 154.064 217.161 151.715C214.891 149.365 212.032 148.445 210.774 149.66C209.515 150.876 210.336 153.766 212.604 156.116C214.874 158.465 217.733 159.385 218.992 158.17Z" fill="#FFBD3A"/>
<path opacity="0.3" d="M210.683 149.73L219.031 158.113C219.013 158.13 218.996 158.148 218.996 158.165C217.736 159.373 214.883 158.463 212.608 156.1C210.368 153.808 209.546 150.99 210.683 149.73Z" fill="black"/>
<path d="M229.869 129.111C230.042 125.297 228.562 122.132 226.563 122.041C224.565 121.95 222.804 124.968 222.631 128.782C222.458 132.596 223.936 135.761 225.935 135.852C227.933 135.943 229.696 132.925 229.869 129.111Z" fill="#FFBD3A"/>
<path opacity="0.3" d="M222.618 128.782C222.793 124.967 224.56 121.957 226.555 122.045L225.925 135.852C223.93 135.765 222.443 132.597 222.618 128.782Z" fill="black"/>
<path d="M232.435 160.326C233.955 157.949 234.12 155.337 232.8 154.494C231.481 153.65 229.18 154.894 227.659 157.271C226.138 159.648 225.975 162.259 227.293 163.103C228.613 163.947 230.914 162.703 232.435 160.326Z" fill="#FFBD3A"/>
<path opacity="0.3" d="M227.659 157.273C226.171 159.6 225.979 162.155 227.204 163.048L232.804 154.49L232.471 154.333C231.124 153.843 229.059 155.085 227.659 157.273Z" fill="black"/>
<path d="M223.72 172.043C223.65 172.043 223.598 171.99 223.598 171.938L220.605 141.033C220.605 140.963 220.64 140.91 220.71 140.893C220.78 140.893 220.833 140.928 220.85 140.998L223.843 171.903C223.86 171.99 223.808 172.043 223.72 172.043C223.738 172.043 223.738 172.043 223.72 172.043Z" fill="#21252B"/>
<path d="M221.363 147.813C223.015 147.613 224.042 144.892 223.66 141.735C223.279 138.578 221.63 136.181 219.98 136.381C218.33 136.58 217.303 139.302 217.684 142.458C218.066 145.615 219.712 148.012 221.363 147.813Z" fill="#FFBD3A"/>
<path opacity="0.3" d="M217.665 142.467C217.28 139.317 218.313 136.587 219.975 136.395L221.358 147.822C219.695 148.015 218.05 145.617 217.665 142.467Z" fill="black"/>
<path d="M221.376 183.4H227.606C228.779 183.4 229.724 182.455 229.724 181.283V173.04H219.259V181.283C219.259 182.455 220.204 183.4 221.376 183.4Z" fill="#868A91"/>
<path d="M229.951 171.92H219.031C218.733 171.92 218.471 172.165 218.471 172.48C218.471 172.777 218.716 173.04 219.031 173.04H229.951C230.248 173.04 230.511 172.795 230.511 172.48C230.511 172.182 230.248 171.92 229.951 171.92Z" fill="#868A91"/>
<path d="M229.723 173.04H220.203C219.906 173.04 219.643 172.795 219.643 172.48C219.643 172.182 219.888 171.92 220.203 171.92H219.048C218.751 171.92 218.488 172.165 218.488 172.48C218.488 172.777 218.733 173.04 219.048 173.04H219.276V173.215V181.3C219.276 182.472 220.221 183.417 221.393 183.417H224.718C224.771 183.417 224.788 183.417 224.788 183.417C223.318 183.417 222.041 182.367 221.761 180.915L220.256 173.215H229.741V173.04H229.723Z" fill="#61656D"/>
<path d="M140.717 38.2197H115.64V59.0447H140.717V38.2197Z" fill="#FFBD3A"/>
<path opacity="0.8" d="M140.717 38.2197H115.64V59.0447H140.717V38.2197Z" fill="white"/>
<path d="M138.932 40.0928H117.425V57.1728H138.932V40.0928Z" fill="white"/>
<path d="M117.425 51.4155L119.77 49.613C122.237 47.723 125.65 47.653 128.187 49.4555L130.13 47.828C132.65 45.728 136.29 45.623 138.915 47.6005L138.932 47.618V57.1555H117.425V51.4155Z" fill="#FFBD3A"/>
<path opacity="0.5" d="M117.425 51.4155L119.77 49.613C122.237 47.723 125.65 47.653 128.187 49.4555L130.13 47.828C132.65 45.728 136.29 45.623 138.915 47.6005L138.932 47.618V57.1555H117.425V51.4155Z" fill="white"/>
<path d="M127.347 46.1998C128.217 46.1998 128.922 45.4947 128.922 44.6248C128.922 43.7549 128.217 43.0498 127.347 43.0498C126.478 43.0498 125.772 43.7549 125.772 44.6248C125.772 45.4947 126.478 46.1998 127.347 46.1998Z" fill="#B2B6BB"/>
<path d="M128.609 49.1222L126.666 50.7147L126.509 50.4697L128.364 48.9297L128.609 49.1222Z" fill="white"/>
<path d="M115.64 38.2197H115.098V59.0447H115.64V38.2197Z" fill="#B2B6BB"/>
<path d="M62.0729 123.655H50.3304C49.9979 123.655 49.7354 123.392 49.7354 123.06C49.7354 122.727 49.9979 122.465 50.3304 122.465H62.0729V123.655Z" fill="#B2B6BB"/>
<path d="M104.615 123.077H51.8525V172.62H104.615V123.077Z" fill="#B2B6BB"/>
<path d="M155.769 123.077H63.334V172.62H155.769V123.077Z" fill="#DADDDF"/>
<path d="M65.1699 127.277H154.07V169.837H65.1699V127.277ZM153.825 127.54H65.4499V169.575H153.825V127.54Z" fill="#B2B6BB"/>
<path d="M157.132 123.655H62.055C61.7225 123.655 61.46 123.392 61.46 123.06C61.46 122.727 61.7225 122.465 62.055 122.465H157.115C157.447 122.465 157.71 122.727 157.71 123.06C157.71 123.392 157.447 123.655 157.132 123.655Z" fill="#DADDDF"/>
<path d="M154.07 155.33H65.1699V155.593H154.07V155.33Z" fill="#B2B6BB"/>
<path d="M154.07 141.242H65.1699V141.505H154.07V141.242Z" fill="#B2B6BB"/>
<path d="M111.947 131.915C112.45 131.915 112.857 131.507 112.857 131.005C112.857 130.502 112.45 130.095 111.947 130.095C111.445 130.095 111.037 130.502 111.037 131.005C111.037 131.507 111.445 131.915 111.947 131.915Z" fill="#B2B6BB"/>
<path opacity="0.15" d="M111.616 131.005C111.616 130.602 111.878 130.27 112.228 130.147C112.141 130.112 112.035 130.095 111.93 130.095C111.423 130.095 111.021 130.497 111.021 131.005C111.021 131.512 111.423 131.915 111.93 131.915C112.035 131.915 112.123 131.897 112.228 131.862C111.878 131.74 111.616 131.407 111.616 131.005Z" fill="black"/>
<path d="M111.947 145.81C112.45 145.81 112.857 145.403 112.857 144.9C112.857 144.398 112.45 143.99 111.947 143.99C111.445 143.99 111.037 144.398 111.037 144.9C111.037 145.403 111.445 145.81 111.947 145.81Z" fill="#B2B6BB"/>
<path opacity="0.15" d="M111.616 144.9C111.616 144.498 111.878 144.165 112.228 144.043C112.141 144.008 112.035 143.99 111.93 143.99C111.423 143.99 111.021 144.393 111.021 144.9C111.021 145.408 111.423 145.81 111.93 145.81C112.035 145.81 112.123 145.793 112.228 145.758C111.878 145.635 111.616 145.285 111.616 144.9Z" fill="black"/>
<path d="M111.947 159.88C112.45 159.88 112.857 159.472 112.857 158.97C112.857 158.467 112.45 158.06 111.947 158.06C111.445 158.06 111.037 158.467 111.037 158.97C111.037 159.472 111.445 159.88 111.947 159.88Z" fill="#B2B6BB"/>
<path opacity="0.15" d="M111.616 158.97C111.616 158.567 111.878 158.235 112.228 158.112C112.141 158.077 112.035 158.06 111.93 158.06C111.423 158.06 111.021 158.462 111.021 158.97C111.021 159.477 111.423 159.88 111.93 159.88C112.035 159.88 112.123 159.862 112.228 159.827C111.878 159.722 111.616 159.372 111.616 158.97Z" fill="black"/>
<path d="M61.4785 124.88L63.3335 123.655H155.786V124.215L61.4785 124.88Z" fill="#B2B6BB"/>
<path d="M54.1805 172.62L53.2705 182.718C53.2005 183.085 53.4805 183.435 53.848 183.435C54.093 183.435 54.3205 183.278 54.408 183.033L57.0505 172.62H54.1805Z" fill="#DADDDF"/>
<path d="M54.5299 178.483L55.6324 178.22L57.0499 172.62H54.1799L53.2699 182.718C53.2174 182.998 53.3749 183.278 53.6199 183.383L54.5299 178.483Z" fill="#B2B6BB"/>
<path d="M64.4882 172.62L63.5782 182.718C63.5082 183.085 63.7882 183.435 64.1557 183.435C64.4007 183.435 64.6282 183.278 64.7157 183.033L67.3582 172.62H64.4882Z" fill="#DADDDF"/>
<path d="M65.451 173.723L67.096 173.408L67.376 172.603H64.506L63.596 182.7C63.5435 182.98 63.701 183.26 63.946 183.365L65.451 173.723Z" fill="#B2B6BB"/>
<path d="M143.413 172.62L144.323 182.718C144.393 183.085 144.113 183.435 143.745 183.435C143.5 183.435 143.273 183.278 143.185 183.033L140.543 172.62H143.413Z" fill="#DADDDF"/>
<path d="M142.905 177.993L143.885 177.748L143.413 172.62H140.543L143.185 183.033C143.273 183.278 143.5 183.435 143.745 183.435C143.763 183.435 143.763 183.435 143.78 183.435L142.905 177.993Z" fill="#B2B6BB"/>
<path d="M154 172.62L154.91 182.718C154.98 183.085 154.7 183.435 154.332 183.435C154.087 183.435 153.86 183.278 153.772 183.033L151.13 172.62H154Z" fill="#DADDDF"/>
<path d="M152.88 173.495L154.14 173.268L154 172.62H151.13L153.772 183.033C153.86 183.278 154.087 183.435 154.332 183.435C154.35 183.435 154.35 183.435 154.367 183.435L152.88 173.495Z" fill="#B2B6BB"/>
<path d="M121.539 105.84H132.792C132.914 105.84 133.019 105.945 133.037 106.067L133.054 106.452C133.054 106.575 132.967 106.68 132.844 106.68H121.592C121.469 106.68 121.364 106.575 121.347 106.452L121.329 106.067C121.329 105.927 121.417 105.84 121.539 105.84Z" fill="#21252B"/>
<path d="M127.873 105.84H153.336C153.458 105.84 153.563 105.945 153.581 106.067L153.598 106.452C153.598 106.575 153.511 106.68 153.388 106.68H127.926C127.803 106.68 127.698 106.575 127.681 106.452L127.663 106.067C127.663 105.927 127.751 105.84 127.873 105.84Z" fill="#3F4249"/>
<path d="M153.02 105.997H127.068C127.033 105.997 126.98 105.962 126.98 105.927C126.98 105.892 127.015 105.857 127.05 105.857H153.003C153.038 105.857 153.09 105.892 153.09 105.927C153.09 105.962 153.055 105.997 153.02 105.997Z" fill="#21252B"/>
<path d="M127.821 105.84H131.793C132.091 105.84 132.353 105.63 132.388 105.315L133.771 89.0748C133.823 88.6898 133.491 88.3223 133.106 88.3223H129.133C128.836 88.3223 128.573 88.5323 128.538 88.8473L127.156 105.087C127.086 105.472 127.418 105.84 127.821 105.84Z" fill="#21252B"/>
<path d="M128.381 105.84H153.003C153.301 105.84 153.563 105.63 153.598 105.315L154.981 89.0748C155.033 88.6898 154.701 88.3223 154.316 88.3223H129.693C129.396 88.3223 129.133 88.5323 129.098 88.8473L127.716 105.087C127.663 105.472 127.978 105.84 128.381 105.84Z" fill="#3F4249"/>
<path opacity="0.6" d="M142.345 95.9351C142.205 96.2851 142.397 96.5826 142.765 96.6001C142.782 96.6001 142.8 96.6001 142.817 96.6001C142.432 97.0726 141.82 97.3876 141.277 97.3701C140.525 97.3526 140.14 96.7401 140.42 95.9876C140.7 95.2351 141.54 94.6401 142.292 94.6576C142.782 94.6751 143.115 94.9201 143.202 95.3051C142.852 95.3226 142.467 95.5851 142.345 95.9351Z" fill="black"/>
<path d="M96.3212 107.59C98.7712 85.9077 94.3612 72.6602 92.8037 68.0927L95.2712 67.4277L103.426 67.4977L104.459 67.8652C104.669 71.9252 107.574 90.1252 110.374 107.573H96.3212V107.59Z" fill="white"/>
<path d="M108.116 179.62L119.473 179.9L114.941 176.662C114.188 176.12 113.716 175.262 113.681 174.335L113.523 170.782L107.346 170.8L108.116 179.62Z" fill="#FC9D9D"/>
<path opacity="0.15" d="M109.376 175.472V175.402C109.341 174.999 109.621 174.649 110.006 174.597L113.628 174.072L113.593 173.354H107.538L108.081 179.374L113.033 178.832L111.406 178.184C110.268 177.729 109.481 176.679 109.376 175.472Z" fill="black"/>
<path d="M87.6582 179.41H92.7682L93.7132 170.765L87.6757 170.782L87.6582 179.41Z" fill="#FC9D9D"/>
<path opacity="0.15" d="M88.9358 177.958L89.0583 175.298C89.0758 174.948 89.3383 174.668 89.6883 174.615L93.3633 174.055L93.4508 173.32L87.6933 173.338L87.6758 179.463L88.9358 177.958Z" fill="black"/>
<path d="M87.3252 102.673V173.355H93.9577L99.7327 115.728C99.7677 115.343 100.083 115.063 100.468 115.063C100.835 115.063 101.15 115.343 101.185 115.728L107.328 173.355H113.96L111.563 102.673H87.3252Z" fill="#FFBD3A"/>
<path opacity="0.2" d="M87.3252 102.673V173.355H93.9577L99.7327 115.728C99.7677 115.343 100.083 115.063 100.468 115.063C100.835 115.063 101.15 115.343 101.185 115.728L107.328 173.355H113.96L111.563 102.673H87.3252Z" fill="white"/>
<path d="M88.0435 176.365L88.201 176.208C89.391 175.018 91.4385 175.035 92.5935 176.26L92.681 176.365C92.9785 176.68 93.136 177.083 93.136 177.485V178.15C93.136 178.535 93.1885 178.92 93.311 179.288L93.8535 181.09C93.9935 181.528 94.0635 181.983 94.0635 182.438V182.665C94.0635 183.015 93.7485 183.295 93.381 183.295H87.0985C86.7135 183.295 86.416 183.015 86.416 182.665V182.578C86.416 182.053 86.5035 181.528 86.6785 181.02L87.3085 179.253C87.4485 178.85 87.536 178.43 87.536 177.993L87.5535 177.485C87.571 177.083 87.746 176.68 88.0435 176.365Z" fill="#3F4249"/>
<path d="M87.1504 173.355H94.2204L94.3604 171.902H87.1679L87.1504 173.355Z" fill="#FFBD3A"/>
<path opacity="0.15" d="M87.1504 173.355H90.1079L90.1779 171.902H87.1679L87.1504 173.355Z" fill="black"/>
<path opacity="0.5" d="M86.416 182.577V182.665C86.416 183.015 86.731 183.295 87.0985 183.295H93.381C93.766 183.295 94.0635 183.015 94.0635 182.665V182.437C94.0635 182.35 94.0635 182.262 94.046 182.175H86.416C86.416 182.297 86.416 182.437 86.416 182.577Z" fill="black"/>
<path d="M107.329 177.608V182.036C107.329 182.753 107.907 183.331 108.624 183.331H123.674C123.972 183.331 124.217 183.086 124.217 182.788C124.217 181.738 123.534 180.793 122.537 180.461L119.142 179.341L114.837 175.998C114.399 175.648 113.769 175.666 113.332 176.033L111.424 177.661C111.144 177.906 110.759 177.976 110.409 177.871L107.994 177.118C107.644 177.031 107.329 177.276 107.329 177.608Z" fill="#3F4249"/>
<path d="M108.623 183.33H123.673C123.971 183.33 124.216 183.085 124.216 182.788C124.216 182.595 124.198 182.42 124.146 182.245H107.346C107.451 182.858 107.976 183.33 108.623 183.33Z" fill="black"/>
<path d="M114.748 177.765C114.713 177.765 114.678 177.748 114.66 177.73C114.608 177.678 114.608 177.59 114.66 177.538L115.57 176.558C115.623 176.505 115.71 176.505 115.763 176.558C115.815 176.61 115.815 176.698 115.763 176.75L114.853 177.73C114.818 177.748 114.783 177.765 114.748 177.765Z" fill="white"/>
<path d="M115.465 178.325C115.43 178.325 115.395 178.308 115.377 178.29C115.325 178.238 115.325 178.15 115.377 178.098L116.287 177.118C116.34 177.065 116.427 177.065 116.48 177.118C116.532 177.17 116.532 177.258 116.48 177.31L115.57 178.29C115.535 178.308 115.5 178.325 115.465 178.325Z" fill="white"/>
<path d="M116.184 178.885C116.149 178.885 116.114 178.867 116.096 178.85C116.044 178.797 116.044 178.71 116.096 178.657L117.006 177.677C117.059 177.625 117.146 177.625 117.199 177.677C117.251 177.73 117.251 177.817 117.199 177.87L116.289 178.85C116.271 178.867 116.236 178.885 116.184 178.885Z" fill="white"/>
<path d="M91.5434 177.853C91.5259 177.853 91.4909 177.853 91.4734 177.835C90.2834 177.24 89.1634 177.835 89.1634 177.835C89.0934 177.87 88.9884 177.853 88.9534 177.765C88.9184 177.695 88.9359 177.59 89.0234 177.555C89.0759 177.52 90.2834 176.89 91.6309 177.555C91.7009 177.59 91.7359 177.695 91.7009 177.765C91.6659 177.818 91.6134 177.853 91.5434 177.853Z" fill="white"/>
<path d="M91.5434 178.658C91.5259 178.658 91.4909 178.658 91.4734 178.64C90.2659 178.045 89.1634 178.64 89.1634 178.64C89.0934 178.675 88.9884 178.658 88.9534 178.57C88.9184 178.5 88.9359 178.395 89.0234 178.36C89.0759 178.325 90.2834 177.695 91.6309 178.36C91.7009 178.395 91.7359 178.5 91.7009 178.57C91.6659 178.623 91.6134 178.658 91.5434 178.658Z" fill="white"/>
<path d="M91.5434 179.445C91.5259 179.445 91.4909 179.445 91.4734 179.427C90.2834 178.832 89.1634 179.427 89.1634 179.427C89.0934 179.462 88.9884 179.445 88.9534 179.357C88.9184 179.287 88.9359 179.182 89.0234 179.147C89.0759 179.112 90.2834 178.482 91.6309 179.147C91.7009 179.182 91.7359 179.287 91.7009 179.357C91.6659 179.41 91.6134 179.445 91.5434 179.445Z" fill="white"/>
<path opacity="0.15" d="M111.283 172.55L104.738 118.143C104.528 116.393 103.04 115.08 101.29 115.08H100.468C100.835 115.08 101.15 115.36 101.185 115.745L107.293 173.058L111.283 172.55Z" fill="black"/>
<path d="M107.153 173.355H114.205L114.1 171.902H107.013L107.153 173.355Z" fill="#FFBD3A"/>
<path opacity="0.15" d="M107.153 173.355H111.353L111.195 171.902H107.013L107.153 173.355Z" fill="black"/>
<path d="M129.274 73.3254L129.886 71.8029C130.114 71.2429 130.394 70.7004 130.744 70.1929L132.319 68.2329C132.354 68.1804 132.406 68.1454 132.476 68.1629C132.966 68.4079 133.019 68.8629 132.844 69.3704C132.721 69.6854 132.476 70.1754 132.301 70.4379C132.161 70.6654 132.389 70.7004 132.476 70.5779L135.924 67.0079C136.081 66.8504 136.344 66.8329 136.501 66.9729C136.676 67.1304 136.711 67.3929 136.554 67.5679C135.959 68.2854 134.594 69.9479 134.594 69.9479L137.306 67.7079C137.481 67.5679 137.744 67.5854 137.901 67.7429C138.094 67.9529 138.076 68.2679 137.884 68.4604C137.096 69.2304 135.294 71.0504 135.294 71.0504L137.709 69.1429C137.884 69.0204 138.111 69.0554 138.251 69.2304C138.391 69.4054 138.374 69.6504 138.216 69.8079C137.516 70.4379 136.186 71.8379 136.186 71.8379L137.709 70.6304C137.849 70.5429 138.041 70.5954 138.129 70.7179C138.216 70.8579 138.199 71.0329 138.094 71.1554L132.826 76.4579L131.216 78.7154L125.424 78.2779L129.274 73.3254Z" fill="#FC9D9D"/>
<g opacity="0.15">
<path opacity="0.15" d="M132.616 74.078C132.599 74.078 132.581 74.078 132.564 74.078C132.494 74.0605 132.459 73.973 132.476 73.903C133.176 71.9605 132.301 70.893 132.266 70.858C132.214 70.8055 132.231 70.718 132.284 70.6655C132.336 70.613 132.424 70.6305 132.476 70.683C132.511 70.7355 133.491 71.908 132.739 74.008C132.739 74.043 132.686 74.078 132.616 74.078Z" fill="black"/>
</g>
<path d="M113.453 72.8525L119.053 86.1875L129.185 73.43L132.633 76.685L122.325 94.22C120.68 97.0025 116.62 96.8975 115.133 94.01L109.165 82.3725L113.453 72.8525Z" fill="#21252B"/>
<path d="M103.286 57.9423C103.286 57.9423 96.1465 53.4623 95.8665 58.9398L95.7615 60.3573L95.2715 67.5323C95.2715 67.7423 95.3415 67.9348 95.464 68.0748L99.594 70.8923C99.7165 70.9798 99.8915 70.9623 99.9965 70.8748L103.059 68.2673C103.269 68.0923 103.374 67.8123 103.339 67.5498L102.884 63.2973C102.971 62.9298 103.024 62.5098 103.024 62.0373C103.094 59.8848 103.286 57.9423 103.286 57.9423Z" fill="#FC9D9D"/>
<path d="M103.916 58.2753C105.25 58.2753 106.331 57.194 106.331 55.8603C106.331 54.5265 105.25 53.4453 103.916 53.4453C102.582 53.4453 101.501 54.5265 101.501 55.8603C101.501 57.194 102.582 58.2753 103.916 58.2753Z" fill="#3F4249"/>
<path d="M104.09 54.0755C104.09 54.0755 106.628 64.7155 101.168 65.433C96.443 66.063 95.918 58.6955 95.918 58.6955L96.1455 53.918L104.09 54.0755Z" fill="#FC9D9D"/>
<path d="M103.775 54.7401L98.9452 55.0901C98.3502 55.1426 97.8952 55.6676 97.9302 56.2626C97.9827 56.8576 97.5277 57.3826 96.9152 57.4351C96.7577 57.4526 96.6352 57.5926 96.6352 57.7501L96.7052 58.8176C96.7227 58.9576 96.6177 59.0801 96.4777 59.0801C96.3552 59.0976 96.2502 59.0101 96.2152 58.8876L96.0052 57.8726L95.7952 57.5401L94.6577 58.2401C94.6577 58.2401 92.8202 55.4051 93.6952 52.8151C94.2027 51.3451 95.6552 50.8201 96.3552 50.7326C96.5827 50.6976 96.7752 50.5751 96.8977 50.3826C97.1777 49.9101 97.8602 49.0876 99.3827 49.1401C100.555 49.1751 101.203 49.8226 101.535 50.3301C101.728 50.6276 102.13 50.7501 102.463 50.5926C102.953 50.3651 103.67 50.2426 104.51 50.7501C106.085 51.7476 105.455 54.4776 103.775 54.7401Z" fill="#3F4249"/>
<path opacity="0.15" d="M95.7604 60.7073C95.7604 60.7073 96.2154 60.7423 96.4604 60.5498L95.6904 61.7398L95.7604 60.7073Z" fill="black"/>
<path d="M96.0233 57.8723C96.0233 57.8723 95.6733 56.8748 94.6233 57.3298C93.4333 57.8548 93.6783 60.5498 95.6908 60.7073C96.7408 60.7948 96.5307 60.1823 96.3557 59.3598C96.0232 57.8723 96.0233 57.8723 96.0233 57.8723Z" fill="#FC9D9D"/>
<path opacity="0.3" d="M94.5708 58.0303C94.7808 57.8903 94.9733 57.8378 95.1483 57.8728C95.3233 57.9078 95.4808 58.0303 95.6033 58.2403C95.7258 58.4503 95.7958 58.6953 95.7958 58.9753L95.8133 59.2028C95.8133 59.2728 95.7608 59.3253 95.6908 59.3253C95.6208 59.3253 95.5683 59.2728 95.5683 59.2028L95.5508 58.9753C95.5508 58.9053 95.5158 58.5553 95.3933 58.3628C95.3058 58.2228 95.2008 58.1353 95.0958 58.1003C94.9908 58.0828 94.8508 58.1178 94.7108 58.2053C94.6583 58.2403 94.5708 58.2228 94.5358 58.1703C94.5008 58.1528 94.5183 58.0828 94.5708 58.0303Z" fill="black"/>
<path d="M103.81 54.9678L103.25 55.0203C103.198 55.0203 103.128 54.9853 103.128 54.9153C103.128 54.8453 103.163 54.7928 103.233 54.7928L103.793 54.7403C103.863 54.7403 103.933 54.7228 104.003 54.7053C104.143 54.6528 104.405 54.5653 104.65 54.3903C104.703 54.3553 104.773 54.3728 104.808 54.4253C104.843 54.4778 104.825 54.5478 104.773 54.5828C104.51 54.7578 104.213 54.8803 104.073 54.9153C103.985 54.9328 103.898 54.9503 103.81 54.9678Z" fill="#FC9D9D"/>
<path opacity="0.15" d="M103.233 66.2903L103.058 64.5753C102.603 65.0478 101.291 65.7303 99.8032 65.3803C99.7857 65.3628 99.8032 65.3803 99.8032 65.3803C98.8932 65.1528 98.2807 64.6453 97.8957 64.1903C97.8607 64.1378 97.7907 64.1378 97.7382 64.1728C97.6857 64.2078 97.6857 64.2778 97.7207 64.3303C98.1932 64.8728 98.9982 65.5203 100.241 65.6778C101.763 66.6928 103.233 66.2903 103.233 66.2903Z" fill="black"/>
<g opacity="0.3">
<path opacity="0.3" d="M101.572 63.2623C101.554 63.2798 101.572 63.2798 101.572 63.2623C101.117 63.2973 100.907 63.3148 100.907 63.3148C100.819 63.3148 100.767 63.2623 100.749 63.1748C100.749 63.0873 100.802 63.0173 100.889 63.0173C100.889 63.0173 101.099 62.9998 101.537 62.9648C101.624 62.9648 101.694 63.0173 101.694 63.0873C101.694 63.1923 101.642 63.2623 101.572 63.2623Z" fill="black"/>
</g>
<g opacity="0.3">
<path opacity="0.3" d="M101.817 62.6323C100.627 62.8073 100.084 62.1598 99.8915 61.8448C99.8565 61.7748 99.874 61.7048 99.944 61.6523C100.014 61.6173 100.084 61.6348 100.137 61.7048C100.312 62.0198 100.907 62.7023 102.342 62.2298C102.412 62.2123 102.482 62.2473 102.517 62.3173C102.534 62.3873 102.499 62.4573 102.429 62.4923C102.202 62.5623 101.992 62.6148 101.817 62.6323Z" fill="black"/>
</g>
<path d="M100.171 59.4824C100.413 59.4824 100.608 59.2866 100.608 59.0449C100.608 58.8032 100.413 58.6074 100.171 58.6074C99.9292 58.6074 99.7334 58.8032 99.7334 59.0449C99.7334 59.2866 99.9292 59.4824 100.171 59.4824Z" fill="#21252B"/>
<path d="M100.363 58.9915C100.411 58.9915 100.45 58.9525 100.45 58.9045C100.45 58.8564 100.411 58.8174 100.363 58.8174C100.314 58.8174 100.275 58.8564 100.275 58.9045C100.275 58.9525 100.314 58.9915 100.363 58.9915Z" fill="white"/>
<path d="M103.636 59.5C103.877 59.5 104.073 59.3042 104.073 59.0625C104.073 58.8208 103.877 58.625 103.636 58.625C103.394 58.625 103.198 58.8208 103.198 59.0625C103.198 59.3042 103.394 59.5 103.636 59.5Z" fill="#21252B"/>
<path d="M103.827 59.0091C103.876 59.0091 103.915 58.9701 103.915 58.922C103.915 58.874 103.876 58.835 103.827 58.835C103.779 58.835 103.74 58.874 103.74 58.922C103.74 58.9701 103.779 59.0091 103.827 59.0091Z" fill="white"/>
<g opacity="0.3">
<path opacity="0.3" d="M102.132 61.5647L101.554 61.5997C101.484 61.5997 101.432 61.5472 101.414 61.4772C101.414 61.4072 101.467 61.3547 101.537 61.3372L102.114 61.3022C102.254 61.2847 102.377 61.1622 102.359 61.0222C102.342 60.8822 102.219 60.7597 102.079 60.7772C102.009 60.7772 101.957 60.7247 101.939 60.6547C101.922 60.5847 101.992 60.5322 102.062 60.5147C102.342 60.4972 102.587 60.7072 102.622 60.9872C102.622 61.3022 102.412 61.5472 102.132 61.5647Z" fill="black"/>
</g>
<path d="M104.878 57.9248H102.97H102.708H101.045H101.028H98.8751C98.5251 57.9248 98.2451 58.2048 98.2451 58.5548V59.0448C98.2451 59.9898 99.0151 60.7598 99.9601 60.7598C100.905 60.7598 101.675 59.9898 101.675 59.0448V58.5548C101.675 58.4148 101.623 58.2748 101.535 58.1698H102.2C102.113 58.2748 102.078 58.4148 102.078 58.5548V59.0448C102.078 59.9898 102.848 60.7598 103.793 60.7598C104.738 60.7598 105.508 59.9898 105.508 59.0448V58.5548C105.508 58.2048 105.228 57.9248 104.878 57.9248ZM101.43 58.5548V59.0448C101.43 59.8498 100.783 60.5148 99.9776 60.5148C99.1726 60.5148 98.5076 59.8673 98.5076 59.0623V58.5723C98.5076 58.3623 98.6826 58.1873 98.8926 58.1873H101.045H101.063C101.255 58.1873 101.43 58.3448 101.43 58.5548ZM105.263 59.0448C105.263 59.8498 104.615 60.5148 103.81 60.5148C103.005 60.5148 102.34 59.8673 102.34 59.0623V58.5723C102.34 58.3623 102.515 58.1873 102.725 58.1873H102.988H104.895C105.105 58.1873 105.28 58.3623 105.28 58.5723L105.263 59.0448Z" fill="#21252B"/>
<g opacity="0.15">
<path opacity="0.15" d="M109.638 104.423H94.7806C94.6931 104.423 94.6406 104.353 94.6406 104.283C94.6406 104.213 94.7106 104.143 94.7806 104.143H109.638C109.726 104.143 109.778 104.213 109.778 104.283C109.778 104.353 109.726 104.423 109.638 104.423Z" fill="black"/>
</g>
<path opacity="0.15" d="M103.915 67.708C103.915 67.708 104.545 89.478 106.208 104.178H108.343L103.915 67.708Z" fill="black"/>
<path opacity="0.15" d="M99.0686 104.265L90.2661 105.455C90.2661 105.455 90.0386 106.085 89.7586 107.012L87.3086 108.115V171.867L90.1611 171.885L92.7511 116.322C100.294 113.627 99.0686 104.265 99.0686 104.265Z" fill="black"/>
<path opacity="0.15" d="M111.703 113.978C111.721 113.978 111.738 113.96 111.756 113.96L110.478 104.178H106.226L106.996 111.265C107.241 113.523 109.621 114.905 111.703 113.978Z" fill="black"/>
<g opacity="0.15">
<path opacity="0.15" d="M107.292 70.4375H100.519L100.012 70.875C99.8892 70.98 99.7142 70.9975 99.5742 70.8925L98.9092 70.4375H91.4717V71.2075H107.292V70.4375Z" fill="#FFBD3A"/>
<path opacity="0.15" d="M107.292 73.7451H91.4717V74.5151H107.292V73.7451Z" fill="#FFBD3A"/>
<path opacity="0.15" d="M107.292 77.0703H91.4717V77.8403H107.292V77.0703Z" fill="black"/>
<path opacity="0.15" d="M107.292 80.3779H91.4717V81.1479H107.292V80.3779Z" fill="black"/>
<path opacity="0.15" d="M107.292 83.7021H91.4717V84.4722H107.292V83.7021Z" fill="black"/>
<path opacity="0.15" d="M107.292 87.0098H91.4717V87.7798H107.292V87.0098Z" fill="black"/>
<path opacity="0.15" d="M107.292 90.335H91.4717V91.105H107.292V90.335Z" fill="black"/>
<path opacity="0.15" d="M108.079 93.6426H91.4717V94.4126H108.079V93.6426Z" fill="black"/>
<path opacity="0.15" d="M108.604 96.9678H91.4717V97.7378H108.604V96.9678Z" fill="black"/>
<path opacity="0.15" d="M109.637 100.275H91.4717V101.045H109.637V100.275Z" fill="black"/>
</g>
<path d="M86.5212 112.332L86.9062 89.0047L81.0962 81.2347L80.9562 74.8297C80.9037 72.3447 82.6362 70.1572 85.0687 69.6322L94.8687 67.5322C96.2337 71.5397 99.7337 87.5697 99.0512 106.032C98.8937 110.442 95.2362 113.942 90.8262 113.942H88.1137C87.2212 113.96 86.5037 113.225 86.5212 112.332Z" fill="#21252B"/>
<path opacity="0.4" d="M91.4733 91.105L86.9058 89.0225L86.5208 112.35C86.5033 113.242 87.2208 113.977 88.1133 113.977H90.8258C91.1408 113.977 91.4383 113.96 91.7358 113.925C91.6658 105.962 91.4733 91.105 91.4733 91.105Z" fill="black"/>
<path d="M114.031 75.6346L112.088 113.645C112.071 113.82 111.931 113.96 111.756 113.96H111.441C110.251 113.96 109.236 113.085 109.043 111.912C106.383 94.6221 104.091 71.6096 103.898 67.7246L110.146 69.7196C112.176 70.3496 114.153 72.8696 114.031 75.6346Z" fill="#21252B"/>
<path d="M111.544 97.3871L112.157 89.5996H106.609L107.082 97.3871C107.099 97.5796 107.257 97.7371 107.467 97.7371H111.159C111.369 97.7196 111.527 97.5796 111.544 97.3871Z" fill="white"/>
<path d="M112.176 88.935H111.563L111.283 88.2175C111.266 88.165 111.213 88.1475 111.178 88.1475H107.451C107.398 88.1475 107.363 88.1825 107.346 88.2175L107.066 88.935H106.593C106.523 88.935 106.471 88.9875 106.471 89.0575V89.495C106.471 89.565 106.523 89.6175 106.593 89.6175H112.193C112.263 89.6175 112.316 89.565 112.316 89.495V89.0575C112.298 88.9875 112.246 88.935 112.176 88.935Z" fill="#FFBD3A"/>
<path opacity="0.2" d="M112.176 88.935H111.563L111.283 88.2175C111.266 88.165 111.213 88.1475 111.178 88.1475H107.451C107.398 88.1475 107.363 88.1825 107.346 88.2175L107.066 88.935H106.593C106.523 88.935 106.471 88.9875 106.471 89.0575V89.495C106.471 89.565 106.523 89.6175 106.593 89.6175H112.193C112.263 89.6175 112.316 89.565 112.316 89.495V89.0575C112.298 88.9875 112.246 88.935 112.176 88.935Z" fill="white"/>
<path opacity="0.15" d="M111.511 88.795H108.431L108.658 88.1475H107.451C107.398 88.1475 107.363 88.1825 107.346 88.2175L107.066 88.935H106.593C106.523 88.935 106.471 88.9875 106.471 89.0575V89.495C106.471 89.565 106.523 89.6175 106.593 89.6175H107.591C107.678 89.3725 107.783 89.075 107.783 89.075C107.801 89.005 107.871 88.97 107.941 88.97H108.378H111.563L111.511 88.795Z" fill="black"/>
<path opacity="0.15" d="M112.159 89.7919L112.176 89.5996H106.629L107.101 97.3871C107.119 97.5796 107.276 97.7371 107.486 97.7371H107.749L107.941 90.0721L112.159 89.7919Z" fill="black"/>
<path d="M109.375 95.4096C110.535 95.4096 111.475 94.5007 111.475 93.3794C111.475 92.2584 110.535 91.3496 109.375 91.3496C108.216 91.3496 107.275 92.2584 107.275 93.3794C107.275 94.5007 108.216 95.4096 109.375 95.4096Z" fill="#FFBD3A"/>
<path d="M104.965 92.1721L106.715 91.3496L106.732 91.7346C106.75 92.0321 106.995 92.2596 107.292 92.2596L111.772 92.2246C112.105 92.2246 112.367 92.4871 112.367 92.8196V92.8371C112.367 93.1696 112.105 93.4496 111.755 93.4671C111.177 93.4671 110.39 93.4846 110.39 93.4846L111.755 93.4671C112.087 93.4671 112.367 93.7296 112.367 94.0621C112.367 94.3946 112.105 94.6746 111.772 94.6746L110.355 94.6921L111.825 94.6746C112.14 94.6746 112.385 94.9196 112.402 95.2346C112.402 95.5321 112.175 95.7771 111.877 95.8121C111.282 95.8646 110.39 95.9346 110.39 95.9346L111.982 96.0921C112.21 96.1096 112.402 96.3021 112.402 96.5471V96.5646C112.402 96.8271 112.192 97.0371 111.93 97.0371C110.075 97.0371 100.817 97.2821 100.817 97.2821L102.707 92.3821L103.565 92.4346C104.037 92.4346 104.527 92.3646 104.965 92.1721Z" fill="#FC9D9D"/>
<g opacity="0.15">
<path opacity="0.15" d="M111.668 93.5896H110.688C110.6 93.5896 110.548 93.5196 110.548 93.4496C110.548 93.3796 110.618 93.3096 110.688 93.3096H111.668C111.755 93.3096 111.808 93.3796 111.808 93.4496C111.808 93.5196 111.738 93.5896 111.668 93.5896Z" fill="black"/>
</g>
<g opacity="0.15">
<path opacity="0.15" d="M111.739 94.8152H110.742C110.654 94.8152 110.602 94.7452 110.602 94.6752C110.602 94.6052 110.672 94.5352 110.742 94.5352H111.739C111.827 94.5352 111.879 94.6052 111.879 94.6752C111.879 94.7452 111.809 94.8152 111.739 94.8152Z" fill="black"/>
</g>
<path d="M80.9727 74.3921V94.5346C80.9727 96.6696 82.7752 98.3496 84.8927 98.2271L103.618 97.1771V92.3996L89.1977 91.5071L89.5827 74.0596" fill="#21252B"/>
<path opacity="0.4" d="M85.5588 95.8998C84.1063 95.9523 82.8288 94.8673 82.8288 93.0648L83.0913 74.1298C83.2138 72.1348 83.8088 70.5948 85.4538 69.5273L85.0863 69.6148C82.5488 70.1573 80.8338 72.4673 80.9738 74.9873V94.5173C80.9738 96.6523 82.7763 98.3498 84.9113 98.1923L103.619 97.1773V96.0748L85.5588 95.8998Z" fill="black"/>
<path opacity="0.4" d="M98.8573 92.12L98.8398 91.8225L91.4548 91.35L89.7223 77.455C89.7048 77.3325 89.5298 77.3325 89.5123 77.4725L89.2148 91.525L91.4898 91.665L98.8573 92.12Z" fill="black"/>
<path opacity="0.15" d="M129.186 73.4297L133.088 76.1597L132.808 76.4397L132.633 76.6847L129.186 73.4297Z" fill="black"/>
<path opacity="0.15" d="M103.618 92.4004L104.073 95.3054C104.161 95.8829 104.651 96.3029 105.228 96.3204L112.421 96.5129C112.421 96.5129 112.421 96.9504 111.948 96.9854L103.618 97.1604V92.4004Z" fill="black"/>
<path opacity="0.4" d="M116.637 92.3651L113.767 86.9751L113.977 81.5501C113.977 81.4626 113.925 81.3926 113.837 81.3926C113.75 81.3926 113.68 81.4451 113.68 81.5326L113.47 86.9576C113.47 86.9751 113.452 86.9926 113.452 87.0101L113.242 90.3176L115.132 94.0101C116.602 96.8976 120.68 97.0026 122.325 94.2201L122.465 93.9751C120.54 95.1826 117.792 94.6226 116.637 92.3651Z" fill="black"/>
<path opacity="0.4" d="M118.423 87.0274L119.053 86.1874L118.213 84.1924L118.038 86.8874C118.02 87.0974 118.3 87.2024 118.423 87.0274Z" fill="black"/>
<path d="M81.5511 109.322H84.9986L74.6561 183.33H73.3086L81.5511 109.322Z" fill="#61656D"/>
<path d="M216.406 183.33H215.058L204.716 109.322H208.163L216.406 183.33Z" fill="#61656D"/>
<path opacity="0.5" d="M73.3086 183.33H73.8861L82.7586 111.405C82.8286 110.897 83.2311 110.495 83.7386 110.46L84.8586 110.355L84.9986 109.34H81.5511L73.3086 183.33Z" fill="black"/>
<path opacity="0.5" d="M215.548 183.33L206.343 111.475C206.273 110.95 206.623 110.442 207.148 110.337L208.251 110.11L208.163 109.305H204.716L215.058 183.312H215.548V183.33Z" fill="black"/>
<path d="M70.9642 109.322H74.4117L64.0692 183.33H62.7217L70.9642 109.322Z" fill="#61656D"/>
<path d="M205.818 183.33H204.47L194.128 109.322H197.575L205.818 183.33Z" fill="#61656D"/>
<path opacity="0.5" d="M62.7217 183.33H63.2992L66.7467 157.097C66.7467 157.097 66.7467 157.097 67.8142 156.485L74.2542 110.337L74.3942 109.322H70.9467L62.7217 183.33Z" fill="black"/>
<path opacity="0.5" d="M204.96 183.33L201.6 157.307C202.808 156.467 202.808 156.467 202.808 156.467L197.558 109.305H194.11L204.453 183.312H204.96V183.33Z" fill="black"/>
<path d="M199.903 92.6448C200.067 92.6448 200.2 92.5116 200.2 92.3473C200.2 92.183 200.067 92.0498 199.903 92.0498C199.738 92.0498 199.605 92.183 199.605 92.3473C199.605 92.5116 199.738 92.6448 199.903 92.6448Z" fill="white"/>
<path d="M170.415 72.8701L164.535 84.6476L156.52 84.4901L155.803 88.3051L164.833 90.0901C166.303 90.3526 167.79 89.7576 168.648 88.5501L173.093 82.3201" fill="#FFBD3A"/>
<path d="M146.738 82.9148L144.62 82.6348L142.1 83.3698C141.89 83.4398 141.803 83.6498 141.925 83.8248C142.013 83.9473 142.17 83.9998 142.328 83.9648L144.743 83.5098L146.248 83.9998L144.743 83.5098L142.643 84.1048C142.468 84.1573 142.398 84.3323 142.468 84.4723C142.538 84.5948 142.695 84.6473 142.835 84.6123L144.953 84.2098L147.14 84.8923L144.953 84.2098L143.448 84.8223C143.343 84.8748 143.308 84.9973 143.378 85.0848C143.43 85.1548 143.535 85.1898 143.64 85.1548L145.39 84.7348L147.455 85.2423L146.738 82.9148Z" fill="#966363"/>
<path opacity="0.15" d="M146.738 82.9148L144.62 82.6348L142.1 83.3698C141.89 83.4398 141.803 83.6498 141.925 83.8248C142.013 83.9473 142.17 83.9998 142.328 83.9648L144.743 83.5098L146.248 83.9998L144.743 83.5098L142.643 84.1048C142.468 84.1573 142.398 84.3323 142.468 84.4723C142.538 84.5948 142.695 84.6473 142.835 84.6123L144.953 84.2098L147.14 84.8923L144.953 84.2098L143.448 84.8223C143.343 84.8748 143.308 84.9973 143.378 85.0848C143.43 85.1548 143.535 85.1898 143.64 85.1548L145.39 84.7348L147.455 85.2423L146.738 82.9148Z" fill="black"/>
<path d="M146.599 82.2324L149.714 84.0349C149.889 84.1399 150.099 84.1924 150.309 84.2099L156.521 84.4899L155.804 88.3049L150.834 87.3249C150.659 87.2899 150.484 87.2899 150.326 87.3249L150.046 87.3774C148.961 87.6574 147.894 87.5349 146.984 86.9924H146.966C146.844 86.9224 146.704 86.8699 146.546 86.8524C146.004 86.7999 144.691 86.6599 144.691 86.6599C144.604 86.6599 144.551 86.5899 144.551 86.5199C144.551 86.1874 144.831 85.8899 145.234 85.8374L146.161 85.7149C146.651 85.6449 146.931 85.1899 146.721 84.8049L145.794 83.1774C145.741 83.0724 145.636 83.0024 145.514 82.9674L142.224 82.1099C142.084 82.0749 141.979 81.9524 142.014 81.8299C142.031 81.6724 142.206 81.5674 142.381 81.5849C143.221 81.6899 145.776 82.0574 146.371 82.1624C146.459 82.1624 146.529 82.1799 146.599 82.2324Z" fill="#966363"/>
<path opacity="0.15" d="M164.554 84.6479L165.604 84.6829C165.849 84.6829 166.076 84.5429 166.164 84.2979L167.896 77.9629L164.554 84.6479Z" fill="black"/>
<path d="M189.123 173.075C188.913 173.828 188.878 174.125 188.895 174.878L188.878 179.918C188.913 180.793 189.158 181.65 189.595 182.42L189.7 182.595C189.963 183.05 190.435 183.313 190.96 183.313H192.413C193.078 183.313 193.655 182.858 193.813 182.21C194.005 181.458 194.023 180.688 193.883 179.935L192.658 174.528C192.57 174.073 192.448 173.548 192.22 173.058H189.123V173.075Z" fill="#FFBD3A"/>
<path d="M168.001 151.165L165.463 170.66C165.358 171.29 165.148 171.885 164.851 172.445L160.686 180.285L161.666 181.615L165.481 179.708L168.876 173.583C168.858 172.533 169.016 171.5 169.331 170.503L174.581 151.165H168.001Z" fill="#966363"/>
<path opacity="0.15" d="M165.48 173.88C165.778 173.32 166.373 171.955 166.46 171.325L169.208 156.223C169.348 155.488 169.855 154.858 170.538 154.578L174.02 153.143L174.178 152.565L167.598 154.123L165.445 170.643C165.34 171.273 165.13 171.868 164.833 172.428L160.668 180.268L161.263 181.265L165.48 173.88Z" fill="black"/>
<path d="M157.99 181.51L160.685 180.285C162.138 180.53 163.608 179.971 164.535 178.833L168.875 173.583C169.663 175.263 169.943 177.135 169.663 178.955L169.033 183.313H168.543L168.403 178.833C168.385 178.501 167.983 178.361 167.773 178.623L165.13 181.86C164.378 182.788 163.24 183.313 162.05 183.313H157.238C156.923 183.313 156.695 182.981 156.818 182.683C157.063 182.176 157.483 181.738 157.99 181.51Z" fill="#FFBD3A"/>
<path d="M188.913 170.8C189.123 172.62 189.228 174.44 189.193 176.278L189.158 178.465C189.193 179.428 189.981 180.18 190.943 180.18H191.241C192.326 180.18 193.148 179.218 193.008 178.15L192.501 175.56C192.238 174.248 192.151 172.9 192.221 171.57L193.621 146.405L186.813 148.348L188.913 170.8Z" fill="#966363"/>
<path d="M191.626 70.8395L185.868 69.667L176.488 69.772L173.041 70.6995C170.888 71.382 169.821 73.2545 169.856 75.512L170.171 77.157L169.278 80.237C168.753 82.232 169.436 83.387 170.818 84.997C171.256 85.5045 171.483 85.7145 171.658 86.677C171.658 86.677 172.498 89.8445 172.656 91.157C173.251 96.2845 173.041 100.134 173.041 100.134L190.751 100.099C191.573 100.099 191.923 99.2245 191.538 98.507C191.538 98.507 190.331 96.1095 190.103 94.0795C189.368 87.4645 191.258 79.5895 191.258 79.5895L194.968 75.477C195.073 73.3245 193.673 71.312 191.626 70.8395Z" fill="#FFBD3A"/>
<path d="M173.478 100.118L167.598 154.281L193.568 147.631L193.83 125.353C193.935 117.006 192.938 108.676 190.89 100.591L190.768 100.083L173.478 100.118Z" fill="#3F4249"/>
<g opacity="0.15">
<path opacity="0.15" d="M182.176 93.2051C182.123 93.2051 182.071 93.1701 182.071 93.1176C182.053 93.0651 182.106 92.9951 182.158 92.9951L189.561 91.5601C189.613 91.5426 189.683 91.5951 189.683 91.6476C189.701 91.7001 189.648 91.7701 189.596 91.7701L182.193 93.2051C182.193 93.2051 182.193 93.2051 182.176 93.2051Z" fill="black"/>
</g>
<path d="M179.219 93.5196L177.084 93.0996L176.611 93.5544L177.171 94.2196L179.219 93.5196Z" fill="#966363"/>
<path opacity="0.15" d="M179.219 93.5196L177.084 93.0996L176.611 93.5544L177.171 94.2196L179.219 93.5196Z" fill="black"/>
<path opacity="0.15" d="M186.918 149.292L188.913 170.817C189 171.57 189.07 172.322 189.105 173.057V173.075C189.175 174.142 189.193 175.21 189.175 176.277L189.14 178.465C189.175 179.392 189.91 180.127 190.82 180.18C189.998 179.532 190.05 178.482 190.033 177.695L188.545 151.62C188.493 150.815 188.948 150.062 189.683 149.73L193.515 147.962L193.533 147.63L186.918 149.292Z" fill="black"/>
<path opacity="0.15" d="M156.503 84.5596L155.681 86.3096C155.401 86.9221 154.736 87.2721 154.071 87.1671L151.008 86.6771C150.763 86.6246 150.501 86.6421 150.273 86.7121C149.643 86.9221 148.243 87.2896 146.913 86.9396C146.931 86.9571 146.948 86.9571 146.966 86.9571H146.983C147.893 87.4996 148.961 87.6221 150.046 87.3421L150.326 87.2896C150.501 87.2546 150.676 87.2546 150.833 87.2896L155.803 88.2696L156.503 84.5596Z" fill="black"/>
<path opacity="0.15" d="M178.834 97.16L181.791 96.5298L190.401 95.8125L190.489 95.8475C190.909 97.055 191.066 97.4573 191.399 98.2273L190.139 98.2798C188.179 98.3148 186.219 98.21 184.259 97.9825C182.456 97.7725 180.636 97.7898 178.816 98.0523V97.16H178.834Z" fill="black"/>
<path d="M194.741 73.832L192.939 73.9545C191.504 76.3345 190.646 78.242 190.734 81.007L190.611 82.1095L194.094 90.947L185.571 92.5745L186.936 96.0745L198.066 95.3395C199.694 95.2345 200.849 93.4845 200.254 91.8395L194.741 73.832Z" fill="#FFBD3A"/>
<path d="M172.672 102.043L172.864 100.118L190.732 100.065L191.222 102.043H172.672Z" fill="#21252B"/>
<path opacity="0.2" d="M184.783 102.042C181.598 102.042 178.903 104.404 178.483 107.554L172.358 153.054L167.598 154.279L173.25 102.042H184.783Z" fill="black"/>
<path d="M181.634 100.905L175.124 89.6528C174.984 89.4078 174.669 89.2853 174.389 89.3903L165.201 92.4878C164.851 92.6103 164.694 92.9953 164.869 93.3103L171.011 103.985C171.151 104.213 171.431 104.335 171.711 104.265L181.266 101.745C181.651 101.658 181.826 101.238 181.634 100.905Z" fill="#3F4249"/>
<path opacity="0.8" d="M181.634 100.905L175.124 89.6528C174.984 89.4078 174.669 89.2853 174.389 89.3903L165.201 92.4878C164.851 92.6103 164.694 92.9953 164.869 93.3103L171.011 103.985C171.151 104.213 171.431 104.335 171.711 104.265L181.266 101.745C181.651 101.658 181.826 101.238 181.634 100.905Z" fill="black"/>
<path d="M181.318 101.027L174.808 89.7749C174.668 89.5299 174.353 89.4074 174.073 89.5124L164.886 92.6274C164.536 92.7499 164.378 93.1349 164.553 93.4499L170.696 104.125C170.836 104.352 171.116 104.475 171.396 104.405L180.951 101.885C181.318 101.762 181.511 101.342 181.318 101.027Z" fill="#21252B"/>
<path d="M171.817 95.1654C171.694 95.0254 171.642 94.8854 171.694 94.7629C171.414 94.6579 171.099 94.6404 170.854 94.7279C170.434 94.8679 170.347 95.2529 170.662 95.5679C170.977 95.8829 171.554 96.0229 171.974 95.8829C172.219 95.7954 172.359 95.6204 172.359 95.4279C172.149 95.3929 171.957 95.2879 171.817 95.1654Z" fill="#3F4249"/>
<path opacity="0.4" d="M166.247 93.8379C166.336 93.6771 166.216 93.4408 165.979 93.3099C165.742 93.179 165.478 93.2032 165.39 93.364C165.301 93.5246 165.421 93.7611 165.658 93.892C165.895 94.0229 166.159 93.9985 166.247 93.8379Z" fill="black"/>
<path d="M166.171 93.873C166.26 93.7124 166.14 93.476 165.903 93.3451C165.666 93.2142 165.402 93.2383 165.313 93.3991C165.225 93.5598 165.345 93.7962 165.582 93.9271C165.818 94.058 166.082 94.0339 166.171 93.873Z" fill="#3F4249"/>
<path opacity="0.5" d="M166.02 93.8132C166.081 93.7033 166 93.5421 165.839 93.4534C165.678 93.3645 165.499 93.3816 165.438 93.4917C165.377 93.6016 165.458 93.7628 165.619 93.8515C165.78 93.9404 165.959 93.9233 166.02 93.8132Z" fill="black"/>
<path opacity="0.4" d="M165.551 93.6425C165.498 93.52 165.568 93.415 165.691 93.3975C165.673 93.3975 165.656 93.3975 165.638 93.3975C165.481 93.3975 165.393 93.5025 165.446 93.6425C165.498 93.7825 165.673 93.8875 165.831 93.8875C165.848 93.8875 165.866 93.8875 165.883 93.8875C165.743 93.87 165.586 93.765 165.551 93.6425Z" fill="black"/>
<path d="M185.554 92.5752L180.601 93.5202C180.549 93.5377 180.479 93.5377 180.426 93.5377L177.294 93.4852C176.961 93.4852 176.646 93.5375 176.331 93.6425L172.709 94.9727C172.551 95.0252 172.464 95.2002 172.516 95.3577C172.569 95.5327 172.744 95.6377 172.901 95.5852L176.366 94.6752L173.076 96.4775C172.919 96.565 172.849 96.7577 172.936 96.9327C173.024 97.0902 173.199 97.16 173.374 97.09L176.734 95.7602L173.706 96.9502C173.549 97.0202 173.461 97.1952 173.514 97.3702C173.566 97.5452 173.741 97.6502 173.916 97.5977L176.996 96.7577L174.336 97.4925C174.196 97.5275 174.109 97.6852 174.144 97.8252C174.179 97.9652 174.319 98.0702 174.476 98.0352L181.564 96.53L186.954 96.0752L185.554 92.5752Z" fill="#966363"/>
<g opacity="0.15">
<path opacity="0.15" d="M173.688 97.0726C173.636 97.0726 173.601 97.0376 173.583 97.0026C173.566 96.9501 173.583 96.8801 173.653 96.8626L176.471 95.7426C176.523 95.7251 176.593 95.7426 176.611 95.8126C176.628 95.8651 176.611 95.9351 176.541 95.9526L173.723 97.0726C173.706 97.0726 173.706 97.0726 173.688 97.0726Z" fill="black"/>
</g>
<g opacity="0.15">
<path opacity="0.15" d="M174.318 97.5969C174.265 97.5969 174.23 97.5619 174.213 97.5094C174.195 97.4569 174.23 97.3869 174.283 97.3694L176.943 96.6344C176.995 96.6169 177.065 96.6519 177.083 96.7044C177.1 96.7569 177.065 96.8269 177.013 96.8444L174.353 97.5794C174.335 97.5969 174.335 97.5969 174.318 97.5969Z" fill="black"/>
</g>
<path opacity="0.15" d="M174.126 97.8252C174.161 97.9652 174.301 98.0702 174.458 98.0352L181.546 96.53L186.936 96.0752L185.571 92.5752L185.763 94.605C185.798 95.0075 185.518 95.3575 185.133 95.4275L181.073 96.0925L174.126 97.8252Z" fill="black"/>
<path opacity="0.6" d="M185.554 92.5754L186.324 92.4004L187.776 96.0052L186.919 96.0754L185.554 92.5754Z" fill="black"/>
<path d="M188.546 73.3597C188.71 73.3597 188.843 73.2265 188.843 73.0622C188.843 72.8978 188.71 72.7646 188.546 72.7646C188.381 72.7646 188.248 72.8978 188.248 73.0622C188.248 73.2265 188.381 73.3597 188.546 73.3597Z" fill="white"/>
<path d="M181.406 74.3577C181.57 74.3577 181.703 74.2243 181.703 74.0602C181.703 73.8959 181.57 73.7627 181.406 73.7627C181.241 73.7627 181.108 73.8959 181.108 74.0602C181.108 74.2243 181.241 74.3577 181.406 74.3577Z" fill="white"/>
<path d="M191.521 94.1848C191.686 94.1848 191.819 94.0517 191.819 93.8873C191.819 93.723 191.686 93.5898 191.521 93.5898C191.357 93.5898 191.224 93.723 191.224 93.8873C191.224 94.0517 191.357 94.1848 191.521 94.1848Z" fill="white"/>
<path d="M188.825 80.4124C188.989 80.4124 189.122 80.279 189.122 80.1149C189.122 79.9506 188.989 79.8174 188.825 79.8174C188.66 79.8174 188.527 79.9506 188.527 80.1149C188.527 80.279 188.66 80.4124 188.825 80.4124Z" fill="white"/>
<path d="M195.755 80.6048C195.919 80.6048 196.052 80.4716 196.052 80.3073C196.052 80.1429 195.919 80.0098 195.755 80.0098C195.59 80.0098 195.457 80.1429 195.457 80.3073C195.457 80.4716 195.59 80.6048 195.755 80.6048Z" fill="white"/>
<path d="M177.748 78.9778C177.912 78.9778 178.045 78.8446 178.045 78.6803C178.045 78.516 177.912 78.3828 177.748 78.3828C177.583 78.3828 177.45 78.516 177.45 78.6803C177.45 78.8446 177.583 78.9778 177.748 78.9778Z" fill="white"/>
<path d="M171.693 80.9895C171.857 80.9895 171.991 80.8564 171.991 80.692C171.991 80.5277 171.857 80.3945 171.693 80.3945C171.529 80.3945 171.396 80.5277 171.396 80.692C171.396 80.8564 171.529 80.9895 171.693 80.9895Z" fill="white"/>
<path d="M169.103 77.6126C169.267 77.6126 169.401 77.4792 169.401 77.3151C169.401 77.1507 169.267 77.0176 169.103 77.0176C168.939 77.0176 168.806 77.1507 168.806 77.3151C168.806 77.4792 168.939 77.6126 169.103 77.6126Z" fill="white"/>
<path d="M168.211 86.5022C168.375 86.5022 168.508 86.3691 168.508 86.2047C168.508 86.0404 168.375 85.9072 168.211 85.9072C168.046 85.9072 167.913 86.0404 167.913 86.2047C167.913 86.3691 168.046 86.5022 168.211 86.5022Z" fill="white"/>
<path d="M162.942 88.76C163.106 88.76 163.24 88.6269 163.24 88.4625C163.24 88.2982 163.106 88.165 162.942 88.165C162.778 88.165 162.645 88.2982 162.645 88.4625C162.645 88.6269 162.778 88.76 162.942 88.76Z" fill="white"/>
<path d="M159.32 85.5403C159.484 85.5403 159.617 85.4071 159.617 85.2428C159.617 85.0785 159.484 84.9453 159.32 84.9453C159.156 84.9453 159.022 85.0785 159.022 85.2428C159.022 85.4071 159.156 85.5403 159.32 85.5403Z" fill="white"/>
<path d="M175 72.2747C175.164 72.2747 175.297 72.1413 175.297 71.9772C175.297 71.8129 175.164 71.6797 175 71.6797C174.835 71.6797 174.702 71.8129 174.702 71.9772C174.702 72.1413 174.835 72.2747 175 72.2747Z" fill="white"/>
<path d="M182.421 82.7405C182.585 82.7405 182.718 82.6073 182.718 82.443C182.718 82.2787 182.585 82.1455 182.421 82.1455C182.256 82.1455 182.123 82.2787 182.123 82.443C182.123 82.6073 182.256 82.7405 182.421 82.7405Z" fill="white"/>
<path d="M180.164 91.5247C180.328 91.5247 180.461 91.3915 180.461 91.2272C180.461 91.0629 180.328 90.9297 180.164 90.9297C179.999 90.9297 179.866 91.0629 179.866 91.2272C179.866 91.3915 179.999 91.5247 180.164 91.5247Z" fill="white"/>
<path d="M184.852 97.7903C185.017 97.7903 185.15 97.6571 185.15 97.4928C185.15 97.3285 185.017 97.1953 184.852 97.1953C184.688 97.1953 184.555 97.3285 184.555 97.4928C184.555 97.6571 184.688 97.7903 184.852 97.7903Z" fill="white"/>
<path d="M176.61 86.7298C176.775 86.7298 176.908 86.5966 176.908 86.4323C176.908 86.2679 176.775 86.1348 176.61 86.1348C176.446 86.1348 176.312 86.2679 176.312 86.4323C176.312 86.5966 176.446 86.7298 176.61 86.7298Z" fill="white"/>
<path d="M174.703 93.6946C174.867 93.6946 175 93.5613 175 93.3971C175 93.2328 174.867 93.0996 174.703 93.0996C174.538 93.0996 174.405 93.2328 174.405 93.3971C174.405 93.5613 174.538 93.6946 174.703 93.6946Z" fill="white"/>
<path d="M194.181 87.3079C194.346 87.3079 194.479 87.1745 194.479 87.0104C194.479 86.8461 194.346 86.7129 194.181 86.7129C194.017 86.7129 193.884 86.8461 193.884 87.0104C193.884 87.1745 194.017 87.3079 194.181 87.3079Z" fill="white"/>
<path d="M186.69 88.6028C186.855 88.6028 186.988 88.4696 186.988 88.3053C186.988 88.141 186.855 88.0078 186.69 88.0078C186.526 88.0078 186.393 88.141 186.393 88.3053C186.393 88.4696 186.526 88.6028 186.69 88.6028Z" fill="white"/>
<path opacity="0.6" d="M184.94 71.3129L187.215 69.9304L185.885 69.6504L176.505 69.7554L175.595 70.0004L177.835 71.3304C180.022 72.6429 182.77 72.6254 184.94 71.3129Z" fill="black"/>
<path d="M185.849 55.1598C187.444 55.1598 188.737 53.8669 188.737 52.2723C188.737 50.6775 187.444 49.3848 185.849 49.3848C184.255 49.3848 182.962 50.6775 182.962 52.2723C182.962 53.8669 184.255 55.1598 185.849 55.1598Z" fill="#21252B"/>
<path d="M187.495 54.6524C186.813 55.1249 185.92 55.2999 185.063 55.0549C183.523 54.6174 182.648 53.0074 183.085 51.4674C183.12 51.3624 183.155 51.2749 183.19 51.1699C184.485 51.3624 186.743 52.5174 187.495 54.6524Z" fill="#FFBD3A"/>
<path d="M184.434 64.2771C184.294 67.3921 183.366 69.1248 185.099 69.1948C187.864 69.3173 190.226 66.8848 190.366 63.7698C190.506 60.6548 188.371 58.0298 185.589 57.9248C184.854 60.5848 184.556 61.1623 184.434 64.2771Z" fill="#21252B"/>
<path d="M183.208 64.4445C183.445 61.7486 181.397 59.3667 178.634 59.1245C175.871 58.8821 173.438 60.8712 173.202 63.5672C172.966 66.2631 175.015 68.645 177.778 68.8872C180.541 69.1294 182.972 67.1404 183.208 64.4445Z" fill="#21252B"/>
<path d="M184.556 62.16L184.731 68.46C184.748 68.9675 185.098 69.405 185.588 69.545L186.306 69.7375L184.661 70.7525C182.718 71.96 180.251 71.9775 178.291 70.805L176.506 69.7375L177.311 69.51C177.766 69.3875 178.098 68.985 178.151 68.53L178.973 61.04L184.556 62.16Z" fill="#966363"/>
<path d="M180.164 66.8147L180.462 66.8322C182.614 66.9197 184.417 65.2572 184.504 63.1222L184.732 57.6797C184.767 56.9622 184.207 56.3672 183.489 56.3322L178.397 56.1047C177.469 56.0697 176.682 56.7872 176.647 57.7147L176.437 62.7722C176.367 64.9072 178.029 66.7272 180.164 66.8147Z" fill="#966363"/>
<path d="M180.583 61.2853C180.816 61.2853 181.003 61.0972 181.003 60.8653C181.003 60.6333 180.816 60.4453 180.583 60.4453C180.35 60.4453 180.163 60.6333 180.163 60.8653C180.163 61.0972 180.35 61.2853 180.583 61.2853Z" fill="#21252B"/>
<path d="M180.408 60.8646C180.457 60.8646 180.496 60.8256 180.496 60.7775C180.496 60.7294 180.457 60.6904 180.408 60.6904C180.36 60.6904 180.321 60.7294 180.321 60.7775C180.321 60.8256 180.36 60.8646 180.408 60.8646Z" fill="white"/>
<path d="M177.311 61.2853C177.543 61.2853 177.731 61.0972 177.731 60.8653C177.731 60.6333 177.543 60.4453 177.311 60.4453C177.078 60.4453 176.891 60.6333 176.891 60.8653C176.891 61.0972 177.078 61.2853 177.311 61.2853Z" fill="#21252B"/>
<path d="M177.136 60.847C177.185 60.847 177.223 60.808 177.223 60.7599C177.223 60.7119 177.185 60.6729 177.136 60.6729C177.087 60.6729 177.049 60.7119 177.049 60.7599C177.049 60.808 177.087 60.847 177.136 60.847Z" fill="white"/>
<g opacity="0.3">
<path opacity="0.3" d="M178.832 63.3149L179.392 63.3673C179.462 63.3673 179.515 63.3148 179.532 63.2623C179.532 63.1923 179.48 63.1399 179.427 63.1224L178.867 63.0698C178.727 63.0523 178.622 62.9299 178.64 62.7899C178.657 62.6499 178.78 62.5448 178.92 62.5448C178.99 62.5448 179.042 62.4924 179.06 62.4399C179.06 62.3699 179.007 62.3173 178.955 62.2998C178.675 62.2823 178.43 62.4923 178.412 62.7548C178.342 63.0523 178.552 63.2974 178.832 63.3149Z" fill="black"/>
</g>
<path d="M175.001 60.2178C175.631 59.7978 175.386 58.9578 175.386 58.9578C175.281 58.6078 175.193 58.2403 175.193 57.8203C175.176 56.5253 175.876 56.0178 176.243 55.8428C176.383 55.7728 176.471 55.6503 176.471 55.5103C176.751 51.4678 182.298 50.5053 185.203 52.9203C186.953 54.3903 187.356 56.0178 187.216 57.5403C187.216 57.5403 187.111 58.2228 187.723 58.5553L186.971 58.8703C186.673 59.9903 186.183 61.0228 185.903 61.8278C185.781 62.1778 185.151 60.7428 184.853 60.5853C184.818 60.5678 184.538 60.9528 184.363 61.1978C184.258 61.3553 183.996 61.3378 183.943 61.1453C183.733 60.4628 183.646 59.7453 183.681 59.0278L183.716 58.3803C182.298 58.1703 181.756 56.8228 181.756 56.8228C180.356 58.3803 178.011 58.2053 177.066 58.0653C176.838 58.0303 176.646 58.2053 176.628 58.4328L176.523 60.8653C176.523 60.8653 176.156 60.5153 175.806 59.9203L175.158 60.3753L175.001 60.2178Z" fill="#21252B"/>
<path d="M184.223 63.332C184.223 63.332 186.06 63.6295 186.603 61.8445C187.145 60.042 184.905 59.517 184.433 61.337L184.013 63.332H184.223Z" fill="#966363"/>
<path opacity="0.3" d="M186.113 60.8295C185.921 60.672 185.746 60.6195 185.571 60.637C185.396 60.6545 185.238 60.7595 185.098 60.952C184.958 61.1445 184.853 61.3895 184.836 61.652L184.818 61.8445C184.801 61.9845 185.046 62.0545 185.063 61.8795C185.098 61.6695 185.098 61.6695 185.098 61.6695C185.098 61.5995 185.168 61.267 185.308 61.092C185.413 60.952 185.518 60.882 185.623 60.8645C185.728 60.847 185.851 60.8995 185.991 61.0045C186.043 61.0395 186.113 61.0395 186.166 60.987C186.183 60.9345 186.166 60.8645 186.113 60.8295Z" fill="black"/>
<path d="M175.368 61.1974C175.298 62.1249 175.998 62.9474 176.926 63.0174C177.853 63.0874 178.676 62.3874 178.746 61.4599C178.763 61.1449 178.711 60.8299 178.571 60.5674C178.921 60.4624 179.253 60.5324 179.411 60.5849C179.341 60.7599 179.288 60.9349 179.271 61.1274C179.201 62.0549 179.901 62.8774 180.828 62.9474C181.756 63.0174 182.578 62.3174 182.648 61.3899C182.718 60.4624 182.018 59.6399 181.091 59.5699C180.426 59.5174 179.831 59.8499 179.516 60.3749C179.341 60.3049 178.938 60.1999 178.466 60.3574C178.186 59.9549 177.731 59.6749 177.206 59.6224C176.261 59.5699 175.438 60.2699 175.368 61.1974ZM179.463 61.1449C179.533 60.3399 180.233 59.7274 181.038 59.7974C181.843 59.8674 182.456 60.5674 182.386 61.3724C182.316 62.1774 181.616 62.7899 180.811 62.7199C180.023 62.6674 179.411 61.9499 179.463 61.1449ZM175.596 61.2149C175.666 60.4099 176.366 59.7974 177.171 59.8674C177.976 59.9374 178.588 60.6374 178.518 61.4424C178.448 62.2474 177.748 62.8599 176.943 62.7899C176.138 62.7199 175.526 62.0199 175.596 61.2149Z" fill="white"/>
<path d="M184.784 63.0875C184.987 63.0875 185.151 62.923 185.151 62.72C185.151 62.517 184.987 62.3525 184.784 62.3525C184.581 62.3525 184.416 62.517 184.416 62.72C184.416 62.923 184.581 63.0875 184.784 63.0875Z" fill="#FFBD3A"/>
<path opacity="0.15" d="M184.626 63.0355C184.853 63.053 185.046 62.8955 185.063 62.668C185.063 62.598 185.046 62.5105 185.011 62.458C185.098 62.528 185.151 62.6505 185.151 62.773C185.133 62.983 184.958 63.123 184.748 63.1055C184.678 63.1055 184.591 63.0705 184.538 63.018C184.573 63.018 184.608 63.018 184.626 63.0355Z" fill="black"/>
<path d="M177.485 58.8C179.13 58.8525 180.25 58.345 180.897 57.89C181.615 57.4175 181.93 56.9275 181.947 56.8925C181.982 56.84 181.965 56.77 181.912 56.735C181.86 56.7 181.79 56.7175 181.755 56.77C181.737 56.7875 180.495 58.66 177.485 58.5725C177.432 58.5725 177.38 58.625 177.38 58.6775C177.38 58.73 177.432 58.7825 177.485 58.8Z" fill="#21252B"/>
<path opacity="0.15" d="M184.59 63.3496H183.995L184.625 64.6096L184.59 63.3496Z" fill="black"/>
<path opacity="0.15" d="M178.238 66.1675C178.833 66.5175 179.515 66.675 180.233 66.71C180.39 66.71 180.548 66.71 180.705 66.71C180.758 66.71 180.828 66.71 180.88 66.6925C180.898 66.6925 180.898 66.6925 180.915 66.6925C181.003 66.675 181.09 66.675 181.195 66.6575C181.23 66.6575 181.265 66.64 181.3 66.64C181.913 66.535 182.368 66.325 182.665 66.15C182.718 66.115 182.788 66.1325 182.823 66.185C182.858 66.2375 182.84 66.3075 182.788 66.3425C182.403 66.57 181.808 66.8325 181.003 66.92C180.583 67.235 179.865 67.62 178.955 67.62C178.658 67.62 178.36 67.585 178.08 67.515L178.238 66.1675Z" fill="black"/>
<path d="M178.518 63.9805C178.465 63.9805 178.43 64.033 178.448 64.0855C178.658 64.488 179.06 64.768 179.533 64.768C180.005 64.768 180.408 64.488 180.618 64.0855C180.635 64.033 180.618 63.9805 180.548 63.9805H178.518Z" fill="white"/>
<path opacity="0.6" d="M156.52 84.4727L157.36 84.4902L156.59 88.4627L155.803 88.3052L156.52 84.4727Z" fill="black"/>
<path opacity="0.15" d="M194.845 90.7898L194.075 90.9298L190.942 82.9848L190.68 82.3198C190.925 81.1823 191.24 79.6948 191.45 78.8023C191.502 78.5923 191.8 78.5748 191.852 78.7848L195.352 89.9148C195.492 90.3173 195.247 90.7198 194.845 90.7898Z" fill="black"/>
<path opacity="0.15" d="M170.818 84.9801C169.435 83.3701 169.208 81.7776 169.733 79.7826L170.293 77.7176L170.765 75.4951C170.765 75.4776 170.765 75.4601 170.765 75.4601C170.765 75.4251 170.73 75.3901 170.678 75.3726C170.625 75.3551 170.555 75.3901 170.538 75.4601L169.96 78.0851L169.68 78.9776C169.68 78.9776 167.423 82.1976 168.123 84.6476C168.385 85.5401 168.543 86.1351 168 86.8876L167.003 88.3401C166.11 89.1626 164.78 88.9526 164.78 88.9526L155.943 87.5176L155.785 88.3401L163.975 89.9501C163.958 89.9501 163.958 89.9501 163.94 89.9501L164.815 90.1076C166.075 90.3351 167.37 89.9151 168.245 89.0226C168.385 88.8826 168.508 88.7426 168.63 88.5676L170.993 85.2426C170.94 85.1376 170.888 85.0501 170.818 84.9801Z" fill="black"/>
<path d="M203.928 108.01C203.928 108.727 203.35 109.322 202.615 109.322H65.293C64.5755 109.322 63.9805 108.745 63.9805 108.01C63.9805 107.292 64.558 106.697 65.293 106.697H202.633C203.35 106.697 203.928 107.292 203.928 108.01Z" fill="#61656D"/>
<path opacity="0.5" d="M203.928 108.01C203.928 108.727 203.35 109.322 202.615 109.322H65.293C64.5755 109.322 63.9805 108.745 63.9805 108.01C63.9805 107.292 64.558 106.697 65.293 106.697H202.633C203.35 106.697 203.928 107.292 203.928 108.01Z" fill="black"/>
<path d="M214.236 108.01C214.236 108.727 213.658 109.322 212.923 109.322H90.3184C89.6009 109.322 89.0059 108.745 89.0059 108.01C89.0059 107.292 89.5834 106.697 90.3184 106.697H212.923C213.641 106.697 214.236 107.292 214.236 108.01Z" fill="#61656D"/>
<path d="M166.916 47.4951H151.148V67.5676H166.916V47.4951Z" fill="white"/>
<path d="M164.797 49.5254H153.247V65.5554H164.797V49.5254Z" fill="#DDDDDD"/>
<path d="M150.688 67.5745H151.143V47.502H150.688V67.5745Z" fill="#DADDDF"/>
<path d="M160.948 59.7277C162.33 59.7277 163.45 58.6071 163.45 57.2252C163.45 55.843 162.33 54.7227 160.948 54.7227C159.566 54.7227 158.445 55.843 158.445 57.2252C158.445 58.6071 159.566 59.7277 160.948 59.7277Z" fill="#FFBD3A"/>
<path opacity="0.2" d="M154.264 63.8225L156.871 59.7275L159.479 63.77L154.264 63.8225Z" fill="black"/>
<path opacity="0.2" d="M160.371 51.2578H154.964V56.6653H160.371V51.2578Z" fill="black"/>
<path d="M167.983 106.347L168.595 98.5596H163.048L163.52 106.347C163.538 106.54 163.695 106.697 163.905 106.697H167.598C167.79 106.697 167.965 106.54 167.983 106.347Z" fill="white"/>
<path d="M168.595 97.8949H167.982L167.702 97.1774C167.685 97.1249 167.632 97.1074 167.597 97.1074H163.887C163.835 97.1074 163.8 97.1424 163.782 97.1774L163.502 97.8949H163.03C162.96 97.8949 162.907 97.9474 162.907 98.0174V98.4549C162.907 98.5249 162.96 98.5774 163.03 98.5774H168.63C168.7 98.5774 168.752 98.5249 168.752 98.4549V98.0174C168.717 97.9474 168.665 97.8949 168.595 97.8949Z" fill="#FFBD3A"/>
<path opacity="0.2" d="M168.595 97.8949H167.982L167.702 97.1774C167.685 97.1249 167.632 97.1074 167.597 97.1074H163.887C163.835 97.1074 163.8 97.1424 163.782 97.1774L163.502 97.8949H163.03C162.96 97.8949 162.907 97.9474 162.907 98.0174V98.4549C162.907 98.5249 162.96 98.5774 163.03 98.5774H168.63C168.7 98.5774 168.752 98.5249 168.752 98.4549V98.0174C168.717 97.9474 168.665 97.8949 168.595 97.8949Z" fill="white"/>
<path opacity="0.15" d="M167.93 97.7549H164.85L165.077 97.1074H163.887C163.835 97.1074 163.8 97.1424 163.782 97.1774L163.502 97.8949H163.03C162.96 97.8949 162.907 97.9474 162.907 98.0174V98.4549C162.907 98.5249 162.96 98.5774 163.03 98.5774H164.027C164.115 98.3324 164.22 98.0349 164.22 98.0349C164.237 97.9649 164.307 97.9299 164.377 97.9299H164.815H168L167.93 97.7549Z" fill="black"/>
<path opacity="0.15" d="M168.578 98.7521L168.595 98.5596H163.048L163.52 106.347C163.538 106.54 163.695 106.697 163.905 106.697H164.168L164.36 99.0321L168.578 98.7521Z" fill="black"/>
<path d="M164.15 102.2C164.15 101.36 164.85 100.678 165.725 100.678C166.6 100.678 167.3 101.36 167.3 102.2" fill="#FFBD3A"/>
<path d="M168.264 102.638H163.294L163.381 104.16H168.141L168.264 102.638Z" fill="#FFBD3A"/>
<path d="M234.186 183.557H42.0707C42.0007 183.557 41.9307 183.505 41.9307 183.417C41.9307 183.33 42.0007 183.277 42.0707 183.277H234.203C234.273 183.277 234.343 183.33 234.343 183.417C234.343 183.505 234.273 183.557 234.186 183.557Z" fill="#B2B6BB"/>
</svg>
