<svg width="194" height="31" viewBox="0 0 194 31" fill="none" xmlns="http://www.w3.org/2000/svg">
<path d="M5.824 23.04L0 7.168H4.288L8.32 19.168L12.352 7.168H16.64L10.784 23.04H5.824Z" fill="#F64920"/>
<path d="M21.6315 4.704C20.8848 4.704 20.2662 4.48 19.7755 4.032C19.3062 3.584 19.0715 3.01867 19.0715 2.336C19.0715 1.65333 19.3062 1.09867 19.7755 0.671999C20.2662 0.224 20.8848 0 21.6315 0C22.3782 0 22.9862 0.224 23.4555 0.671999C23.9462 1.09867 24.1915 1.65333 24.1915 2.336C24.1915 3.01867 23.9462 3.584 23.4555 4.032C22.9862 4.48 22.3782 4.704 21.6315 4.704ZM19.5835 23.04V7.168H23.6795V23.04H19.5835Z" fill="#F64920"/>
<path d="M35.4507 23.424C33.9574 23.424 32.6241 23.0613 31.4508 22.336C30.2774 21.6107 29.3494 20.6187 28.6667 19.36C27.9841 18.1013 27.6427 16.672 27.6427 15.072C27.6427 13.472 27.9841 12.0533 28.6667 10.816C29.3494 9.55733 30.2774 8.576 31.4508 7.872C32.6241 7.14667 33.9574 6.784 35.4507 6.784C36.6454 6.784 37.6907 7.008 38.5868 7.456C39.4827 7.904 40.2081 8.53333 40.7627 9.344V0H44.8587V23.04H41.2108L40.7627 20.768C40.2507 21.472 39.5681 22.0907 38.7147 22.624C37.8827 23.1573 36.7947 23.424 35.4507 23.424ZM36.3148 19.84C37.6374 19.84 38.7147 19.4027 39.5467 18.528C40.4001 17.632 40.8268 16.4907 40.8268 15.104C40.8268 13.7173 40.4001 12.5867 39.5467 11.712C38.7147 10.816 37.6374 10.368 36.3148 10.368C35.0134 10.368 33.9361 10.8053 33.0827 11.68C32.2294 12.5547 31.8027 13.6853 31.8027 15.072C31.8027 16.4587 32.2294 17.6 33.0827 18.496C33.9361 19.392 35.0134 19.84 36.3148 19.84Z" fill="#F64920"/>
<path d="M56.9417 23.424C55.3417 23.424 53.9231 23.0827 52.6857 22.4C51.4484 21.7173 50.4778 20.7573 49.7738 19.52C49.0698 18.2827 48.7177 16.8533 48.7177 15.232C48.7177 13.5893 49.0591 12.128 49.7417 10.848C50.4457 9.568 51.4057 8.576 52.6217 7.872C53.8591 7.14667 55.3097 6.784 56.9737 6.784C58.5311 6.784 59.9071 7.12533 61.1017 7.808C62.2964 8.49067 63.2244 9.42933 63.8857 10.624C64.5684 11.7973 64.9098 13.1093 64.9098 14.56C64.9098 14.7947 64.8991 15.04 64.8777 15.296C64.8777 15.552 64.8671 15.8187 64.8457 16.096H52.7817C52.8671 17.3333 53.2937 18.304 54.0617 19.008C54.8511 19.712 55.8004 20.064 56.9097 20.064C57.7417 20.064 58.4351 19.8827 58.9897 19.52C59.5658 19.136 59.9924 18.6453 60.2697 18.048H64.4297C64.1311 19.0507 63.6298 19.968 62.9258 20.8C62.2431 21.6107 61.3897 22.2507 60.3657 22.72C59.3631 23.1893 58.2217 23.424 56.9417 23.424ZM56.9737 10.112C55.9711 10.112 55.0857 10.4 54.3177 10.976C53.5497 11.5307 53.0591 12.384 52.8457 13.536H60.7497C60.6857 12.4907 60.3017 11.6587 59.5977 11.04C58.8937 10.4213 58.0191 10.112 56.9737 10.112Z" fill="#F64920"/>
<path d="M76.1708 23.424C74.6348 23.424 73.2481 23.072 72.0107 22.368C70.7947 21.664 69.8241 20.6933 69.0988 19.456C68.3948 18.1973 68.0428 16.7467 68.0428 15.104C68.0428 13.4613 68.4054 12.0213 69.1308 10.784C69.8561 9.52533 70.8268 8.544 72.0428 7.84C73.2801 7.136 74.6668 6.784 76.2028 6.784C77.7174 6.784 79.0828 7.136 80.2988 7.84C81.5361 8.544 82.5068 9.52533 83.2108 10.784C83.9361 12.0213 84.2988 13.4613 84.2988 15.104C84.2988 16.7467 83.9361 18.1973 83.2108 19.456C82.5068 20.6933 81.5361 21.664 80.2988 22.368C79.0614 23.072 77.6854 23.424 76.1708 23.424ZM76.1708 19.872C77.2374 19.872 78.1654 19.4773 78.9548 18.688C79.7441 17.8773 80.1388 16.6827 80.1388 15.104C80.1388 13.5253 79.7441 12.3413 78.9548 11.552C78.1654 10.7413 77.2481 10.336 76.2028 10.336C75.1148 10.336 74.1761 10.7413 73.3868 11.552C72.6188 12.3413 72.2348 13.5253 72.2348 15.104C72.2348 16.6827 72.6188 17.8773 73.3868 18.688C74.1761 19.4773 75.1041 19.872 76.1708 19.872Z" fill="#F64920"/>
<path d="M97.569 23.424C96.3743 23.424 95.329 23.2 94.433 22.752C93.537 22.304 92.8117 21.6747 92.257 20.864L91.809 23.04H88.161V0H92.257V9.44C92.769 8.736 93.441 8.11733 94.273 7.584C95.1263 7.05067 96.225 6.784 97.569 6.784C99.0623 6.784 100.396 7.14667 101.569 7.872C102.742 8.59733 103.67 9.58933 104.353 10.848C105.036 12.1067 105.377 13.536 105.377 15.136C105.377 16.736 105.036 18.1653 104.353 19.424C103.67 20.6613 102.742 21.6427 101.569 22.368C100.396 23.072 99.0623 23.424 97.569 23.424ZM96.705 19.84C98.0063 19.84 99.0837 19.4027 99.937 18.528C100.79 17.6533 101.217 16.5227 101.217 15.136C101.217 13.7493 100.79 12.608 99.937 11.712C99.0837 10.816 98.0063 10.368 96.705 10.368C95.3823 10.368 94.2943 10.816 93.441 11.712C92.609 12.5867 92.193 13.7173 92.193 15.104C92.193 16.4907 92.609 17.632 93.441 18.528C94.2943 19.4027 95.3823 19.84 96.705 19.84Z" fill="#F64920"/>
<path d="M116.948 23.424C115.348 23.424 113.929 23.0827 112.692 22.4C111.455 21.7173 110.484 20.7573 109.78 19.52C109.076 18.2827 108.724 16.8533 108.724 15.232C108.724 13.5893 109.065 12.128 109.748 10.848C110.452 9.568 111.412 8.576 112.628 7.872C113.865 7.14667 115.316 6.784 116.98 6.784C118.537 6.784 119.913 7.12533 121.108 7.808C122.303 8.49067 123.231 9.42933 123.892 10.624C124.575 11.7973 124.916 13.1093 124.916 14.56C124.916 14.7947 124.905 15.04 124.884 15.296C124.884 15.552 124.873 15.8187 124.852 16.096H112.788C112.873 17.3333 113.3 18.304 114.068 19.008C114.857 19.712 115.807 20.064 116.916 20.064C117.748 20.064 118.441 19.8827 118.996 19.52C119.572 19.136 119.999 18.6453 120.276 18.048H124.436C124.137 19.0507 123.636 19.968 122.932 20.8C122.249 21.6107 121.396 22.2507 120.372 22.72C119.369 23.1893 118.228 23.424 116.948 23.424ZM116.98 10.112C115.977 10.112 115.092 10.4 114.324 10.976C113.556 11.5307 113.065 12.384 112.852 13.536H120.756C120.692 12.4907 120.308 11.6587 119.604 11.04C118.9 10.4213 118.025 10.112 116.98 10.112Z" fill="#F64920"/>
<path d="M128.561 23.04V0H132.657V23.04H128.561Z" fill="#F64920"/>
<path d="M142.514 23.424C141.149 23.424 140.029 23.2107 139.154 22.784C138.28 22.336 137.629 21.7493 137.202 21.024C136.776 20.2987 136.562 19.4987 136.562 18.624C136.562 17.152 137.138 15.9573 138.29 15.04C139.442 14.1227 141.17 13.664 143.474 13.664H147.506V13.28C147.506 12.192 147.197 11.392 146.578 10.88C145.96 10.368 145.192 10.112 144.274 10.112C143.442 10.112 142.717 10.3147 142.098 10.72C141.48 11.104 141.096 11.68 140.946 12.448H136.946C137.053 11.296 137.437 10.2933 138.098 9.44C138.781 8.58667 139.656 7.936 140.722 7.488C141.789 7.01867 142.984 6.784 144.306 6.784C146.568 6.784 148.349 7.34933 149.65 8.48C150.952 9.61067 151.602 11.2107 151.602 13.28V23.04H148.114L147.73 20.48C147.261 21.3333 146.6 22.0373 145.746 22.592C144.914 23.1467 143.837 23.424 142.514 23.424ZM143.442 20.224C144.616 20.224 145.522 19.84 146.162 19.072C146.824 18.304 147.24 17.3547 147.41 16.224H143.922C142.834 16.224 142.056 16.4267 141.586 16.832C141.117 17.216 140.882 17.696 140.882 18.272C140.882 18.8907 141.117 19.3707 141.586 19.712C142.056 20.0533 142.674 20.224 143.442 20.224Z" fill="#F64920"/>
<path d="M157.983 4.704C157.236 4.704 156.618 4.48 156.127 4.032C155.658 3.584 155.423 3.01867 155.423 2.336C155.423 1.65333 155.658 1.09867 156.127 0.671999C156.618 0.224 157.236 0 157.983 0C158.73 0 159.338 0.224 159.807 0.671999C160.298 1.09867 160.543 1.65333 160.543 2.336C160.543 3.01867 160.298 3.584 159.807 4.032C159.338 4.48 158.73 4.704 157.983 4.704ZM152.703 30.08V26.592H153.951C154.655 26.592 155.156 26.4533 155.455 26.176C155.754 25.8987 155.903 25.4293 155.903 24.768V7.168H159.999V24.768C159.999 26.688 159.508 28.0533 158.527 28.864C157.567 29.6747 156.255 30.08 154.591 30.08H152.703Z" fill="#F64920"/>
<path d="M169.945 23.424C168.58 23.424 167.46 23.2107 166.585 22.784C165.711 22.336 165.06 21.7493 164.633 21.024C164.207 20.2987 163.993 19.4987 163.993 18.624C163.993 17.152 164.569 15.9573 165.721 15.04C166.873 14.1227 168.602 13.664 170.906 13.664H174.938V13.28C174.938 12.192 174.628 11.392 174.01 10.88C173.391 10.368 172.623 10.112 171.706 10.112C170.874 10.112 170.148 10.3147 169.529 10.72C168.911 11.104 168.527 11.68 168.378 12.448H164.378C164.484 11.296 164.868 10.2933 165.529 9.44C166.212 8.58667 167.087 7.936 168.154 7.488C169.22 7.01867 170.415 6.784 171.738 6.784C173.999 6.784 175.78 7.34933 177.081 8.48C178.383 9.61067 179.034 11.2107 179.034 13.28V23.04H175.546L175.161 20.48C174.692 21.3333 174.031 22.0373 173.178 22.592C172.346 23.1467 171.268 23.424 169.945 23.424ZM170.874 20.224C172.047 20.224 172.954 19.84 173.594 19.072C174.255 18.304 174.671 17.3547 174.842 16.224H171.354C170.266 16.224 169.487 16.4267 169.018 16.832C168.548 17.216 168.314 17.696 168.314 18.272C168.314 18.8907 168.548 19.3707 169.018 19.712C169.487 20.0533 170.106 20.224 170.874 20.224Z" fill="#F64920"/>
<path d="M183.142 23.04V7.168H186.79L187.174 10.144C187.75 9.12 188.529 8.30933 189.51 7.712C190.513 7.09333 191.686 6.784 193.03 6.784V11.104H191.878C190.982 11.104 190.182 11.2427 189.478 11.52C188.774 11.7973 188.22 12.2773 187.814 12.96C187.43 13.6427 187.238 14.592 187.238 15.808V23.04H183.142Z" fill="#F64920"/>
<path d="M44.8584 23.04H41.2109L40.7627 20.7676C40.2507 21.4716 39.5682 22.0907 38.7148 22.624C37.8829 23.1573 36.795 23.4238 35.4512 23.4238C33.958 23.4238 32.6244 23.0612 31.4512 22.3359C30.278 21.6107 29.3496 20.6188 28.667 19.3604C27.9844 18.1018 27.6426 16.6722 27.6426 15.0723C27.6426 13.4724 27.9844 12.0537 28.667 10.8164C29.3497 9.55774 30.2778 8.57607 31.4512 7.87207C32.6244 7.14685 33.958 6.78418 35.4512 6.78418C36.6457 6.78423 37.691 7.00811 38.5869 7.45605C39.4828 7.90401 40.2081 8.53322 40.7627 9.34375V0H44.8584V23.04ZM56.9736 6.78418C58.5308 6.78418 59.907 7.12507 61.1016 7.80762C62.2962 8.49028 63.2244 9.42936 63.8857 10.624C64.5683 11.7972 64.9101 13.1091 64.9102 14.5596C64.9102 14.7942 64.8993 15.0399 64.8779 15.2959C64.8779 15.5518 64.867 15.8185 64.8457 16.0957H52.7822C52.8676 17.3329 53.2937 18.3038 54.0615 19.0078C54.8509 19.7118 55.8008 20.0645 56.9102 20.0645C57.742 20.0644 58.4357 19.8821 58.9902 19.5195C59.566 19.1356 59.9923 18.645 60.2695 18.0479H64.4297C64.131 19.0505 63.6297 19.9678 62.9258 20.7998C62.2432 21.6103 61.39 22.2504 60.3662 22.7197C59.3635 23.1891 58.2214 23.4238 56.9414 23.4238C55.3416 23.4238 53.9228 23.083 52.6855 22.4004C51.4482 21.7177 50.4774 20.7569 49.7734 19.5195C49.0697 18.2824 48.7178 16.8534 48.7178 15.2324C48.7178 13.5898 49.0595 12.1277 49.7422 10.8477C50.4462 9.56787 51.4062 8.57599 52.6221 7.87207C53.8593 7.14684 55.3098 6.7842 56.9736 6.78418ZM76.2031 6.78418C77.7176 6.78424 79.0829 7.13591 80.2988 7.83984C81.5362 8.54384 82.5069 9.52551 83.2109 10.7842C83.9361 12.0213 84.2988 13.4611 84.2988 15.1035C84.2988 16.7462 83.9363 18.1974 83.2109 19.4561C82.5069 20.6934 81.5362 21.6642 80.2988 22.3682C79.0615 23.0721 77.6855 23.4238 76.1709 23.4238C74.6349 23.4238 73.2481 23.0721 72.0107 22.3682C70.7947 21.6642 69.824 20.6934 69.0986 19.4561C68.3946 18.1974 68.043 16.7462 68.043 15.1035C68.043 13.4611 68.4056 12.0214 69.1309 10.7842C69.8562 9.52551 70.827 8.54384 72.043 7.83984C73.2802 7.13593 74.6672 6.78418 76.2031 6.78418ZM171.737 6.78418C173.999 6.78418 175.78 7.34981 177.081 8.48047C178.382 9.61114 179.033 11.2109 179.033 13.2803V23.04H175.546L175.161 20.4805C174.692 21.3335 174.031 22.0373 173.178 22.5918C172.346 23.1465 171.268 23.4238 169.945 23.4238C168.58 23.4238 167.461 23.2107 166.586 22.7842C165.711 22.3363 165.06 21.7495 164.634 21.0244C164.207 20.2991 163.993 19.4987 163.993 18.624C163.993 17.152 164.57 15.9574 165.722 15.04C166.874 14.1228 168.601 13.6641 170.905 13.6641H174.938V13.2803C174.938 12.1923 174.628 11.3919 174.01 10.8799C173.391 10.3679 172.622 10.1123 171.705 10.1123C170.873 10.1124 170.148 10.3145 169.529 10.7197C168.911 11.1037 168.527 11.6803 168.378 12.4482H164.378C164.485 11.2964 164.868 10.2937 165.529 9.44043C166.212 8.58716 167.087 7.93628 168.153 7.48828C169.22 7.01897 170.415 6.7842 171.737 6.78418ZM92.2568 9.44043C92.7688 8.73643 93.4414 8.11732 94.2734 7.58398C95.1267 7.05078 96.2255 6.78418 97.5693 6.78418C99.0625 6.78423 100.396 7.14679 101.569 7.87207C102.742 8.5973 103.67 9.58931 104.353 10.8477C105.031 12.0993 105.372 13.5201 105.376 15.1094C102.118 17.4525 99.2016 20.2395 96.7148 23.3828C95.8693 23.2997 95.1083 23.0898 94.4326 22.752C93.5368 22.304 92.8114 21.6748 92.2568 20.8643L91.8086 23.04H88.1611V0H92.2568V9.44043ZM8.32031 19.168L12.3516 7.16797H16.6396L10.7842 23.04H5.82422L0 7.16797H4.28809L8.32031 19.168ZM23.6797 23.04H19.584V7.16797H23.6797V23.04ZM193.03 11.1035H191.878C190.982 11.1035 190.182 11.2423 189.479 11.5195C188.775 11.7968 188.22 12.2774 187.814 12.96C187.43 13.6426 187.238 14.5918 187.238 15.8076V23.04H183.143V7.16797H186.79L187.174 10.1436C187.75 9.11963 188.529 8.30922 189.511 7.71191C190.513 7.09341 191.686 6.78418 193.03 6.78418V11.1035ZM171.354 16.2236C170.266 16.2236 169.487 16.4267 169.018 16.832C168.548 17.216 168.313 17.6965 168.313 18.2725C168.314 18.8909 168.548 19.3707 169.018 19.7119C169.487 20.0532 170.105 20.2236 170.873 20.2236C172.046 20.2236 172.954 19.8402 173.594 19.0723C174.255 18.3043 174.671 17.3543 174.842 16.2236H171.354ZM76.2031 10.3359C75.1152 10.3359 74.176 10.7412 73.3867 11.5518C72.6188 12.341 72.2345 13.5251 72.2344 15.1035C72.2344 16.6822 72.6187 17.8778 73.3867 18.6885C74.176 19.4777 75.1043 19.8721 76.1709 19.8721C77.2375 19.872 78.1658 19.4777 78.9551 18.6885C79.7444 17.8778 80.1387 16.6822 80.1387 15.1035C80.1386 13.5251 79.7443 12.341 78.9551 11.5518C78.1658 10.7412 77.2483 10.336 76.2031 10.3359ZM36.3145 10.3682C35.0134 10.3682 33.9362 10.8053 33.083 11.6797C32.2297 12.5544 31.8027 13.6856 31.8027 15.0723C31.8028 16.4588 32.2297 17.6002 33.083 18.4961C33.9362 19.3919 35.0133 19.8398 36.3145 19.8398C37.6371 19.8398 38.7149 19.4029 39.5469 18.5283C40.4002 17.6323 40.8271 16.4902 40.8271 15.1035C40.827 13.7171 40.4001 12.5865 39.5469 11.7119C38.7149 10.8159 37.6371 10.3682 36.3145 10.3682ZM96.7051 10.3682C95.3825 10.3682 94.2947 10.8161 93.4414 11.7119C92.6095 12.5865 92.1935 13.7171 92.1934 15.1035C92.1934 16.4902 92.6094 17.6323 93.4414 18.5283C94.2947 19.4027 95.3826 19.8398 96.7051 19.8398C98.0062 19.8398 99.0833 19.4027 99.9365 18.5283C100.79 17.6537 101.217 16.5224 101.217 15.1357C101.217 13.7492 100.79 12.6079 99.9365 11.7119C99.0832 10.8161 98.0062 10.3682 96.7051 10.3682ZM159.999 18.7979C158.707 17.5757 157.339 16.4337 155.903 15.3779V7.16797H159.999V18.7979ZM56.9736 10.1123C55.971 10.1123 55.0854 10.3996 54.3174 10.9756C53.5494 11.5303 53.059 12.3842 52.8457 13.5361H60.75C60.686 12.4908 60.3017 11.6587 59.5977 11.04C58.8937 10.4214 58.019 10.1123 56.9736 10.1123ZM116.98 6.78418C118.538 6.78425 119.914 7.12502 121.108 7.80762C121.213 7.8675 121.315 7.93032 121.416 7.99414C116.992 8.9407 112.82 10.5652 109.016 12.7578C109.186 12.0818 109.43 11.4448 109.748 10.8477C110.452 9.56782 111.412 8.57602 112.628 7.87207C113.865 7.14674 115.316 6.78418 116.98 6.78418ZM144.307 6.78418C146.568 6.78424 148.349 7.34987 149.65 8.48047C150.8 9.47961 151.44 10.8451 151.574 12.5771C147.908 10.5061 143.908 8.95803 139.675 8.0332C140.001 7.82708 140.35 7.64488 140.723 7.48828C141.789 7.01902 142.984 6.78418 144.307 6.78418ZM132.657 7.09473C131.928 7.05797 131.194 7.04004 130.456 7.04004C129.821 7.04004 129.189 7.05575 128.561 7.08301V0H132.657V7.09473ZM21.6318 0C22.3782 6.71168e-05 22.9859 0.224123 23.4551 0.671875C23.9457 1.09853 24.1914 1.6533 24.1914 2.33594C24.1914 3.0186 23.9457 3.58423 23.4551 4.03223C22.9859 4.47995 22.3782 4.70403 21.6318 4.7041C20.8852 4.7041 20.266 4.4802 19.7754 4.03223C19.3061 3.58423 19.0713 3.0186 19.0713 2.33594C19.0713 1.6533 19.3061 1.09853 19.7754 0.671875C20.2661 0.223877 20.8852 0 21.6318 0ZM157.983 0C158.73 7.93199e-05 159.337 0.224116 159.807 0.671875C160.297 1.09853 160.543 1.6533 160.543 2.33594C160.543 3.0186 160.297 3.58423 159.807 4.03223C159.337 4.47995 158.73 4.70402 157.983 4.7041C157.237 4.7041 156.618 4.48017 156.127 4.03223C155.658 3.58423 155.423 3.0186 155.423 2.33594C155.423 1.6533 155.658 1.09853 156.127 0.671875C156.618 0.223898 157.237 0 157.983 0Z" fill="#FFBD3A"/>
</svg>
